<?xml version="1.0" standalone="no"?>
<!DOCTYPE svg PUBLIC "-//W3C//DTD SVG 1.1//EN" "http://www.w3.org/Graphics/SVG/1.1/DTD/svg11.dtd" >
<svg xmlns="http://www.w3.org/2000/svg" xmlns:xlink="http://www.w3.org/1999/xlink" version="1.1">
<metadata></metadata>
<defs>
<font id="neigaregular" horiz-adv-x="1187" >
<font-face units-per-em="2048" ascent="1638" descent="-410" />
<missing-glyph horiz-adv-x="512" />
<glyph horiz-adv-x="0" />
<glyph horiz-adv-x="682" />
<glyph unicode=" "  horiz-adv-x="512" />
<glyph unicode="&#x09;" horiz-adv-x="512" />
<glyph unicode="&#xa0;" horiz-adv-x="512" />
<glyph unicode="!" horiz-adv-x="354" d="M90 0h189v186h-189v-186zM106 1493q-13 -420 21 -1104h121q34 672 20 1104h-162z" />
<glyph unicode="&#x22;" horiz-adv-x="657" d="M82 1491q0 -239 18 -459h117q19 233 19 459h-154zM420 1491q0 -249 20 -459h115q20 210 20 459h-155z" />
<glyph unicode="#" horiz-adv-x="1236" d="M82 412h184l-112 -412h159l113 412h172l-113 -410h160l111 410h399v153h-356l84 307h272v154h-229l127 467h-160l-127 -467h-172l127 463h-160l-127 -463h-352v-154h311l-84 -307h-227v-153zM467 565l86 307h170l-84 -307h-172z" />
<glyph unicode="$" horiz-adv-x="997" d="M82 117q189 -114 377 -117v-184h153v202q93 25 163 87t106 155l2 4q83 254 -74 418q-72 75 -197 127v539q106 -16 222 -88l81 129q-148 96 -303 112v98h-153v-102q-157 -31 -242 -145q-59 -76 -81 -172t1 -191q21 -89 81 -157.5t155 -104.5l55 -16q5 -2 15.5 -5.5 t15.5 -5.5v-546q-143 3 -295 94zM287 1024q-14 59 0.5 121.5t52.5 111.5q43 56 119 80v-475q-74 19 -116.5 62t-55.5 100zM612 182v455q49 -25 86 -62q82 -82 52 -215l-13 -45l-14 -30q-42 -74 -111 -103z" />
<glyph unicode="%" horiz-adv-x="1767" d="M82 979q0 -132 92 -224.5t223 -92.5t223.5 92.5t92.5 224.5v166q0 130 -92.5 222.5t-223.5 92.5t-223 -92t-92 -223v-166zM236 979v166q0 67 47.5 114.5t113.5 47.5q67 0 114.5 -47.5t47.5 -114.5v-166q0 -67 -47.5 -114.5t-114.5 -47.5q-66 0 -113.5 47.5t-47.5 114.5z M406 0h174l809 1499h-175zM1053 315q0 -131 92.5 -223t224.5 -92q131 0 223.5 92.5t92.5 222.5v168q0 131 -93 223.5t-223 92.5q-132 0 -224.5 -92.5t-92.5 -223.5v-168zM1208 315v168q0 66 47.5 114t114.5 48q66 0 114 -48t48 -114v-168q0 -66 -48 -113.5t-114 -47.5 q-67 0 -114.5 47.5t-47.5 113.5z" />
<glyph unicode="&#x26;" horiz-adv-x="1363" d="M82 369q5 -103 49 -187.5t132 -139t206 -54.5q274 0 440 172l11 10l153 -170h209l-270 297l16 29q82 163 113 385h-156q-20 -143 -70 -262l-14 -31l-348 383l35 20q96 62 163.5 149t94.5 177q44 142 -31 244q-77 107 -262 110h-4q-149 -6 -228.5 -92t-87.5 -213 q-9 -165 76 -328l10 -18l-4 -2q-120 -87 -179.5 -217t-53.5 -262zM236 375q-6 94 38 189t132 159l6 4l403 -442l-14 -17q-121 -127 -332 -127q-108 0 -168 65t-65 169zM387 1186q7 133 127 157l39 5l29 -2q81 -7 110 -46q27 -39 6 -108q-21 -75 -86.5 -149.5t-156.5 -120.5 l-11 20q-66 125 -57 244z" />
<glyph unicode="'" horiz-adv-x="317" d="M82 1491q-3 -238 18 -459h115q21 220 21 459h-154z" />
<glyph unicode="(" horiz-adv-x="616" d="M108.5 850.5q-56.5 -327.5 7.5 -656.5t244 -665h175q-594 1041 -9 1962h-180q-181 -313 -237.5 -640.5z" />
<glyph unicode=")" horiz-adv-x="616" d="M82 -471q594 1038 10 1962h178q181 -312 238 -639.5t-7 -657t-243 -665.5h-176z" />
<glyph unicode="*" horiz-adv-x="782" d="M82 1239q131 -35 221 -47q-77 -71 -160 -174l125 -90q65 102 119 209q42 -90 119 -209l125 90q-73 90 -160 174q94 12 229 47l-49 147q-121 -50 -200 -94q16 133 20 201h-156q5 -82 23 -203q-99 52 -207 96z" />
<glyph unicode="+" horiz-adv-x="1093" d="M82 643h401v-401h127v401h402v129h-402v399h-127v-399h-401v-129z" />
<glyph unicode="," horiz-adv-x="352" d="M82 0h108v-96q0 -36 -21.5 -61t-53.5 -25h-33v-90h33q64 0 109.5 52t45.5 124v284h-188v-188z" />
<glyph unicode="-" horiz-adv-x="1120" d="M82 567h956v154h-956v-154z" />
<glyph unicode="." horiz-adv-x="352" d="M82 0h188v188h-188v-188z" />
<glyph unicode="/" horiz-adv-x="843" d="M82 -270h190l490 1783h-191z" />
<glyph unicode="0" horiz-adv-x="1196" d="M88 862q-21 -193 23.5 -375.5t149 -314.5t247.5 -168q111 -28 215.5 10.5t187.5 128.5q79 89 130.5 214t66.5 270q21 194 -23.5 377t-149 315t-247.5 168q-112 28 -217 -11t-186 -130q-79 -87 -130.5 -212.5t-66.5 -271.5zM240 846q27 255 159 397q118 130 252 94 q93 -24 168.5 -120t114.5 -249.5t20 -324.5q-13 -125 -54.5 -226.5t-102.5 -168.5q-116 -128 -252 -96q-92 24 -168.5 120.5t-115.5 250t-21 323.5z" />
<glyph unicode="1" horiz-adv-x="804" d="M82 1020l115 -102l372 360v-1278h154v1493h-154z" />
<glyph unicode="2" horiz-adv-x="1146" d="M82 0h983v154h-764q213 216 336 376q58 76 102.5 146t80.5 150t52.5 153t11.5 151t-36 148l-4 6q-65 124 -188.5 176t-272 22.5t-285.5 -136.5l92 -125q98 78 198.5 103.5t178.5 1t125 -88.5l15 -25l10 -26q66 -212 -203 -561q-57 -74 -135 -161t-139 -150t-158 -160 v-154z" />
<glyph unicode="3" horiz-adv-x="968" d="M82 121q77 -71 177.5 -104.5t207.5 -20.5q194 22 316.5 170t99.5 336q-13 104 -69.5 188.5t-143.5 138.5q79 60 119 149.5t28 190.5q-13 102 -76 181.5t-157 118t-197 26.5q-144 -15 -242 -121l99 -119q62 79 162 88q97 12 173.5 -45t88.5 -147q11 -89 -50 -162.5 t-159 -85.5h-180v-151h141q120 -3 209 -80t102 -189q15 -124 -66.5 -223.5t-213.5 -114.5q-80 -9 -152.5 17t-124.5 80z" />
<glyph unicode="4" horiz-adv-x="1153" d="M82 414h651v-414h154v414h184v153h-184v926h-154l-649 -926h-2v-153zM272 567l461 656v-656h-461z" />
<glyph unicode="5" horiz-adv-x="983" d="M82 80q131 -91 291 -94q134 -2 250.5 59t186.5 169.5t73 238.5q2 130 -64.5 240.5t-180.5 174.5t-247 66q-37 0 -55 -2l63 405h502v156h-635l-121 -801q98 88 242 88q146 -3 244.5 -99t95.5 -226q-3 -131 -104.5 -224t-247.5 -90q-116 0 -211 72z" />
<glyph unicode="6" horiz-adv-x="1136" d="M84.5 623q-6.5 -121 14 -230t77.5 -198t143 -136q110 -66 248 -69q129 -2 240 56t178.5 162.5t69.5 229.5q4 190 -135 325t-336 138q-195 -6 -314 -72q32 110 87 203.5t131 165.5t177 111.5t216 36.5v147q-118 3 -225 -30.5t-189.5 -93t-151 -142t-115 -174t-75.5 -191.5 q-34 -118 -40.5 -239zM231 623q54 48 153 87t196 42q139 -1 234 -94t93 -218q-3 -126 -101.5 -215t-236.5 -86q-72 0 -151 35q-4 4 -15 8q-2 1 -6 4l-18 13q-170 143 -148 424z" />
<glyph unicode="7" horiz-adv-x="995" d="M82 1337h661l-639 -1337h172l637 1337v156h-831v-156z" />
<glyph unicode="8" horiz-adv-x="1077" d="M102 299q27 -86 86.5 -154t136 -105.5t166.5 -49t179 15.5q89 26 160 82t111 130t52 161.5t-18 175.5q-46 149 -182 238q98 71 137.5 188.5t3.5 237.5q-31 102 -109.5 173.5t-177.5 93.5t-207 -5q-103 -31 -175.5 -109t-94.5 -176t6 -205q33 -113 127 -188 q-132 -76 -190 -216.5t-11 -287.5zM248 344q-36 111 23 216t180 140q122 35 232 -22t146 -170q36 -111 -22 -215t-178 -139q-122 -35 -233.5 22t-147.5 168zM324 1036q-29 94 17.5 181t141.5 116q96 29 185 -18t118 -141t-17.5 -181t-143.5 -116t-185 17.5t-116 141.5z" />
<glyph unicode="9" horiz-adv-x="1120" d="M82 1055q-1 -96 30.5 -186.5t88 -161t141 -114t182.5 -44.5q34 1 70 8t62.5 15.5t60 23.5t50 24t45 25t34.5 19q-34 -110 -90.5 -202.5t-134 -164.5t-182 -111.5t-222.5 -35.5v-150q122 -3 232 31t195 93.5t155.5 142t118 173.5t77.5 191q35 118 42 238.5t-14.5 229.5 t-80 197.5t-147.5 135.5q-119 69 -254 69q-199 4 -327.5 -123.5t-131.5 -322.5zM236 1053q2 129 83 215.5t220 85.5q86 -3 155 -37q41 -21 41 -25q56 -41 92 -112.5t47 -132.5t11 -119q-20 -73 -130.5 -149.5t-228.5 -82.5q-70 1 -127 33.5t-92.5 84t-54 114t-16.5 125.5z " />
<glyph unicode=":" horiz-adv-x="352" d="M82 0h188v186h-188v-186zM82 770h188v186h-188v-186z" />
<glyph unicode=";" horiz-adv-x="350" d="M82 0h108v-96q0 -35 -22 -60.5t-53 -25.5h-33v-90h33q63 0 108 52t45 124v282h-186v-186zM82 770h186v186h-186v-186z" />
<glyph unicode="&#x3c;" horiz-adv-x="1073" d="M82 590v168l909 387v-168l-712 -303l712 -303v-168z" />
<glyph unicode="=" horiz-adv-x="1091" d="M82 432h928v129h-928v-129zM82 854h928v129h-928v-129z" />
<glyph unicode="&#x3e;" horiz-adv-x="1073" d="M82 203l909 387v168l-909 387v-168l713 -303l-713 -303v-168z" />
<glyph unicode="?" horiz-adv-x="804" d="M82 1401l98 -119q45 38 110.5 54t129.5 5q62 -11 102.5 -47.5t46.5 -97.5v-16l-2 -29q0 -53 -14 -96q-29 -80 -111 -156l-30 -25l-27 -20q-103 -76 -129 -207q-20 -101 6 -258h156q0 2 -1 6t-1 6q-23 145 -10 217q17 81 94 130l10 6q142 121 188 250q9 26 14.5 55.5t7 46 t2.5 42t1 26.5v4q0 129 -79 211t-198 104q-94 18 -192.5 -5.5t-171.5 -86.5zM244 0h188v186h-188v-186z" />
<glyph unicode="@" horiz-adv-x="1536" d="M82 436q0 -127 49.5 -243t133.5 -200t200.5 -133.5t243.5 -49.5h118q34 0 50 2v153q-16 -2 -50 -2h-118q-196 0 -334.5 139t-138.5 334v367q0 97 37.5 184.5t100.5 151.5t151 101.5t184 37.5h118q195 0 334 -139.5t139 -335.5v-402q0 -57 -33 -95t-89 -38h-29 q-54 0 -87.5 39t-33.5 96v349q0 95 -68 157.5t-163 55.5l-269 -27l15 -152l268 25q27 3 45 -13.5t18 -45.5v-70h-217q-63 0 -106 -43.5t-43 -106.5v-83q0 -71 49.5 -123t120.5 -52h74q72 0 131 35l6 2l12 -30l2 -7h2q34 -65 99.5 -104t144.5 -39h29q115 0 195.5 78.5 t80.5 191.5v402q0 170 -84 315t-228.5 229.5t-314.5 84.5h-118q-170 0 -314.5 -84.5t-228.5 -229.5t-84 -315v-367zM657 449v81h217v-14h-2v-14l-4 -8q-40 -66 -116 -66h-74q-9 0 -15 6t-6 15z" />
<glyph unicode="A" d="M82 0h160l129 473h444l131 -473h160l-410 1493h-204zM414 627l180 657l180 -657h-360z" />
<glyph unicode="B" horiz-adv-x="1075" d="M82 0h545q150 0 256.5 104t109.5 254v131q0 96 -47 178.5t-127 133.5q54 50 84.5 119.5t30.5 146.5v59q0 152 -107 259.5t-258 107.5h-487v-1493zM236 154v546h391q88 0 150.5 -61.5t62.5 -149.5v-122q0 -88 -62.5 -150.5t-150.5 -62.5h-391zM236 856v481h333 q88 0 149.5 -61.5t61.5 -149.5v-59q0 -88 -61.5 -149.5t-149.5 -61.5h-333z" />
<glyph unicode="C" horiz-adv-x="968" d="M82 297q0 -133 95 -221q84 -78 200 -77q14 0 29 1l481 43l-15 154l-479 -43q-8 -1 -16 -1q-55 1 -95 37q-46 42 -46 107v897q0 66 46 108q40 36 95 36q8 0 16 -1l479 -43l15 154l-481 43q-15 1 -29 1q-115 0 -200 -78q-95 -88 -95 -220v-897z" />
<glyph unicode="D" horiz-adv-x="1077" d="M82 0h549q140 0 244.5 94.5t119.5 233.5v798q0 152 -106.5 259.5t-257.5 107.5h-549v-1493zM236 154v1183h395q88 0 149.5 -61.5t61.5 -149.5v-759q0 -88 -61.5 -150.5t-149.5 -62.5h-395z" />
<glyph unicode="E" horiz-adv-x="1044" d="M82 0h881v156h-725v497h546v156h-546v526h725v158h-881v-1493z" />
<glyph unicode="F" horiz-adv-x="1044" d="M82 0h156v653h546v156h-546v526h725v158h-881v-1493z" />
<glyph unicode="G" horiz-adv-x="1169" d="M82 471q0 -195 138 -333t333 -138h168q152 0 259 107.5t107 259.5v348h-503v-154h348v-209q-5 -83 -65.5 -140.5t-145.5 -57.5h-168q-131 0 -224 93t-93 224v549q0 132 93 224.5t224 92.5h106q125 0 215 -84l115 105q-65 63 -150.5 99t-179.5 36h-106q-195 0 -333 -138.5 t-138 -334.5v-549z" />
<glyph unicode="H" horiz-adv-x="1083" d="M82 0h154v668h612v-668h153v1493h-153v-672h-612v672h-154v-1493z" />
<glyph unicode="I" horiz-adv-x="317" d="M82 0h154v1493h-154v-1493z" />
<glyph unicode="J" horiz-adv-x="653" d="M82 0l164 -14q14 -1 27 -1q116 0 201 77q95 87 97 221v1210h-155v-1208q0 -67 -46 -109q-40 -38 -96 -38q-8 0 -16 1l-164 15z" />
<glyph unicode="K" horiz-adv-x="1087" d="M82 0h154v602l143 193l448 -795h179l-525 928l428 565h-182l-491 -635v635h-154v-1493z" />
<glyph unicode="L" horiz-adv-x="962" d="M82 0h799v154h-645v1339h-154v-1493z" />
<glyph unicode="M" horiz-adv-x="1388" d="M82 0h156l161 1278l236 -856h160l235 856l162 -1278h156l-191 1493h-229l-213 -778l-213 778h-230z" />
<glyph unicode="N" horiz-adv-x="1140" d="M82 0h156v1290l608 -1290h213v1493h-154v-1257l-594 1257h-229v-1493z" />
<glyph unicode="O" horiz-adv-x="1212" d="M82 471q0 -195 138 -333t333 -138h106q195 0 333 138t138 333v549q0 128 -63 237t-171.5 172.5t-236.5 63.5h-106q-128 0 -236.5 -63.5t-171.5 -172.5t-63 -237v-549zM236 471v549q0 132 93 224.5t224 92.5h106q131 0 224.5 -92.5t93.5 -224.5v-549q0 -130 -93.5 -223.5 t-224.5 -93.5h-106q-131 0 -224 93t-93 224z" />
<glyph unicode="P" horiz-adv-x="956" d="M82 0h154v627h294q142 0 243 100.5t101 241.5v180q0 141 -101 242.5t-243 101.5h-448v-1493zM236 780v557h294q78 0 133.5 -55t55.5 -133v-180q0 -77 -55.5 -133t-133.5 -56h-294z" />
<glyph unicode="Q" horiz-adv-x="1212" d="M82 471q0 -195 138 -333t333 -138h106q115 0 222 55q92 -95 212 -95q11 0 23 1l14 160q-20 -5 -38 -5q-47 0 -88 34q126 136 126 321v549q0 128 -63 237t-171.5 172.5t-236.5 63.5h-106q-128 0 -236.5 -63.5t-171.5 -172.5t-63 -237v-549zM236 471v549q0 132 92.5 224.5 t224.5 92.5h106q131 0 223.5 -92.5t92.5 -224.5v-549q0 -122 -80 -211l-158 166l-110 -107l139 -147q-50 -18 -107 -18h-106q-132 0 -224.5 93t-92.5 224z" />
<glyph unicode="R" horiz-adv-x="1032" d="M82 0h154v627h301q104 -13 122 -103l134 -524h157l-141 563q-24 83 -72 131q63 48 100 120.5t37 154.5v180q0 141 -101 242.5t-243 101.5h-448v-1493zM236 780v557h294q78 0 133.5 -55t55.5 -133v-180q0 -77 -55.5 -133t-133.5 -56h-294z" />
<glyph unicode="S" horiz-adv-x="1003" d="M82 109q200 -120 392 -120q38 0 75 5q116 15 205.5 81t132.5 177v4q30 90 30 168q0 146 -104 252q-102 107 -342 178q-79 19 -124 63.5t-58 102.5q-7 29 -7 59.5t7 61.5q14 63 53 112q29 39 76 63t109 32q15 2 32 1q49 0 111 -17q82 -23 168 -77l84 131q-139 87 -278 109 q-50 8 -96 8q-82 0 -152 -25q-109 -39 -177 -128q-61 -76 -83 -174q-11 -48 -11 -96q0 -49 12 -97q23 -89 83 -158t155 -104l55 -16q192 -55 272 -138q60 -60 60 -147q0 -32 -8 -68l-13 -45l-14 -31q-61 -110 -199 -129q-28 -4 -57 -4q-145 0 -305 97z" />
<glyph unicode="T" horiz-adv-x="1261" d="M82 1337h473v-1337h154v1337h471v156h-1098v-156z" />
<glyph unicode="U" horiz-adv-x="1124" d="M82 471q0 -195 138 -333t333 -138h18q195 0 333 138t138 333v1022h-153v-1022q0 -130 -93.5 -223.5t-224.5 -93.5h-18q-132 0 -224.5 93t-92.5 224v1022h-154v-1022z" />
<glyph unicode="V" horiz-adv-x="1140" d="M82 1491l410 -1491h159l408 1491h-160l-328 -1200l-329 1200h-160z" />
<glyph unicode="W" horiz-adv-x="1703" d="M82 1491l410 -1491h159l201 733l201 -733h159l410 1491h-160l-329 -1200l-201 733l129 467h-160l-49 -176l-80 -291l-201 -733l-329 1200h-160z" />
<glyph unicode="X" horiz-adv-x="1273" d="M82 0h182l373 600l373 -600h182l-465 745l465 748h-182l-373 -602l-373 602h-182l465 -748z" />
<glyph unicode="Y" horiz-adv-x="1222" d="M82 1493l453 -889v-604h153v604l453 889h-174l-357 -700l-356 700h-172z" />
<glyph unicode="Z" horiz-adv-x="1032" d="M82 0h868v154h-690l678 1183v156h-852v-156h674l-678 -1183v-154z" />
<glyph unicode="[" horiz-adv-x="573" d="M82 -471h410v154h-256v1654h256v154h-410v-1962z" />
<glyph unicode="\" horiz-adv-x="843" d="M82 1513h190l490 -1785h-191z" />
<glyph unicode="]" horiz-adv-x="573" d="M82 -317h254v1652h-254v156h410v-1962h-410v154z" />
<glyph unicode="^" horiz-adv-x="821" d="M82 670h160l168 614l170 -614h159l-227 823h-205z" />
<glyph unicode="_" horiz-adv-x="1337" d="M82 -315v-156h1173v156h-1173z" />
<glyph unicode="`" horiz-adv-x="581" d="M82 1516l266 -263h152l-178 263h-240z" />
<glyph unicode="a" horiz-adv-x="921" d="M82 231q0 -97 69 -165t166 -68h115q138 0 254 82l33 -80h121v725q0 135 -96 222q-84 76 -198 77q-16 0 -32 -2l-395 -35l14 -153l393 34q8 1 16 1q55 -1 96 -37q46 -42 46 -107v-160h-403q-82 0 -140.5 -57.5t-58.5 -138.5v-138zM238 231v138q0 19 12 31t31 12h405v-95 q-33 -73 -102 -119t-152 -46h-115q-33 0 -56 23t-23 56z" />
<glyph unicode="b" horiz-adv-x="919" d="M82 162q59 -75 146.5 -117.5t187.5 -42.5h55q152 0 259.5 107.5t107.5 259.5v297q-1 150 -108 256t-257 106h-57q-96 0 -180 -49v514h-154v-1331zM236 223v549q28 46 76 73t104 27h57q88 0 149.5 -61t61.5 -149v-293q0 -89 -62.5 -151t-150.5 -62h-55q-100 0 -180 67z " />
<glyph unicode="c" horiz-adv-x="860" d="M82 297q0 -133 95 -221q84 -78 200 -77q14 0 29 1l393 37l-13 151l-395 -34q-8 -1 -16 -1q-55 1 -94 37q-45 42 -45 107v428q0 65 45 107q39 36 94 37q8 0 16 -1l395 -34l13 153l-393 35l-32 2q-112 0 -196 -78q-96 -88 -96 -221v-428z" />
<glyph unicode="d" horiz-adv-x="919" d="M82 236q0 -97 68 -165.5t165 -68.5h117q141 0 252 82l33 -84h121v1493h-154v-483q-58 14 -104 14h-134q-149 0 -255 -104.5t-109 -253.5v-430zM236 236v421q0 88 61.5 150.5t148.5 62.5h134q56 0 104 -28v-520q-33 -75 -101 -120.5t-151 -45.5h-117q-34 0 -56.5 23 t-22.5 57z" />
<glyph unicode="e" horiz-adv-x="894" d="M82 299q0 -135 96 -222q84 -76 198 -76q16 0 32 1l393 35l-13 153l-395 -34q-8 -1 -16 0q-55 0 -95 36q-46 42 -46 107v113h577v331q0 117 -82 199t-199 82h-170q-117 0 -198.5 -82t-81.5 -199v-444zM236 567v176q0 53 37 90t89 37h170q52 0 89.5 -37t37.5 -90v-176h-423 z" />
<glyph unicode="f" horiz-adv-x="851" d="M82 870h182v-870h156v870h295v154h-295v193q0 66 46 107q40 37 96 37q8 0 16 -1l219 -21l14 154l-219 20q-16 1 -32 1q-113 0 -198 -76q-96 -87 -98 -221v-193h-182v-154z" />
<glyph unicode="g" horiz-adv-x="1009" d="M82 -106v-64q0 -124 88 -211.5t213 -87.5h246q125 0 212 87.5t87 211.5v90q0 97 -67.5 165.5t-164.5 68.5h-256h-4q-50 0 -80 25q-30 26 -32 71q50 -17 106 -17h152q143 0 244.5 101.5t101.5 245.5v96q0 82 -35.5 154t-97.5 120q23 13 45 13h88v116h-88q-72 0 -127 -82 q-69 27 -131 27h-152q-145 0 -246.5 -101.5t-101.5 -246.5v-96q0 -144 102 -246l-6 -15q-21 -58 -21 -108q0 -62 33 -113q59 -92 197 -98h309q32 0 56 -24t24 -56v-90q0 -60 -43.5 -103.5t-103.5 -43.5h-246q-61 0 -104 43.5t-43 103.5v64h-154zM236 580v96q0 80 57 137 t137 57h152q79 0 135.5 -57t56.5 -137v-96q0 -80 -56.5 -137.5t-135.5 -57.5h-152q-79 0 -136.5 57.5t-57.5 137.5z" />
<glyph unicode="h" horiz-adv-x="923" d="M82 0h154v788l309 76q20 5 37 5q36 0 64 -21q42 -31 42 -92v-756h154v780q-2 130 -94 200q-63 48 -142 48q-36 0 -76 -10l-294 -74v549h-154v-1493z" />
<glyph unicode="i" horiz-adv-x="317" d="M82 0h154v1024h-154v-1024zM82 1171h154v263h-154v-263z" />
<glyph unicode="j" horiz-adv-x="528" d="M82 -467l39 -4q15 -1 29 -1q116 0 200 78q95 87 96 222v1196h-155v-1196q0 -67 -45 -108q-41 -38 -99 -38q-7 0 -14 1l-29 4zM291 1171h155v263h-155v-263z" />
<glyph unicode="k" horiz-adv-x="954" d="M82 0h154v379l161 164l273 -543h172l-330 657l360 367h-215l-421 -426v895h-154v-1493z" />
<glyph unicode="l" horiz-adv-x="317" d="M82 0h154v1493h-154v-1493z" />
<glyph unicode="m" horiz-adv-x="1366" d="M82 0h156v791l225 71q24 7 45 7q32 1 57 -17q41 -30 41 -92v-760h154v799l227 63q22 6 41 6q34 0 60 -19q42 -30 42 -91v-758h154v786q-2 131 -93 198q-60 44 -135 44q-39 0 -83 -12l-258 -74q-40 58 -110 78q-31 9 -64 8q-43 0 -90 -14l-213 -68l-33 78h-123v-1024z" />
<glyph unicode="n" horiz-adv-x="905" d="M82 0h154v793l290 71q20 5 37 5q36 0 65 -21q42 -31 42 -92v-756h151v780q0 130 -91 200q-63 48 -142 48q-36 0 -76 -10l-276 -70l-33 76h-121v-1024z" />
<glyph unicode="o" horiz-adv-x="970" d="M82 389q0 -161 114 -275t277 -114h25q161 0 276 114t115 275v244q0 161 -115 275t-276 114h-25q-163 0 -277 -114t-114 -275v-244zM236 389v244q0 98 69.5 166.5t167.5 68.5h25q98 0 166.5 -68.5t68.5 -166.5v-244q0 -98 -68.5 -166.5t-166.5 -68.5h-25 q-98 0 -167.5 68.5t-69.5 166.5z" />
<glyph unicode="p" horiz-adv-x="919" d="M82 -481h156v524q80 -41 178 -41h57q151 0 257 106t108 257v299q-1 149 -108.5 254.5t-256.5 105.5h-33q-109 0 -202 -80l-35 80h-121v-1505zM238 225v486q27 72 81 115.5t121 43.5h33q88 0 149.5 -62.5t61.5 -150.5v-290q0 -88 -61.5 -149.5t-149.5 -61.5h-53 q-107 0 -182 69z" />
<glyph unicode="q" horiz-adv-x="919" d="M82 365q2 -151 108 -257t256 -106h58q96 0 180 41v-524h154v1505h-121l-33 -80q-93 80 -205 80h-33q-149 0 -256 -105.5t-108 -254.5v-299zM236 367v292q0 88 61 149.5t149 61.5h33q66 0 121.5 -43.5t83.5 -113.5v-486q-77 -71 -184 -71h-54q-87 0 -148.5 62t-61.5 149z " />
<glyph unicode="r" horiz-adv-x="708" d="M82 0h156v684q0 66 45.5 115t111.5 53l219 16l13 156l-219 -16q-90 -6 -172 -62l-31 78h-123v-1024z" />
<glyph unicode="s" horiz-adv-x="890" d="M82 72q136 -62 275 -76q32 -3 62 -4q103 0 191 36q114 46 166 146l2 4q28 70 28 127q0 27 -7 53q-20 76 -92 134q-86 67 -293 116q-69 11 -104 37t-42 55q-8 25 0.5 56t36.5 57q34 33 93 49q35 10 82 10q33 0 72 -4q95 -12 196 -63l61 141q-173 81 -324 81q-15 -1 -29 -1 q-164 -8 -257 -100q-57 -56 -79 -127q-10 -34 -11 -70q0 -38 12 -78q25 -75 93 -126t169 -70q163 -33 229 -86q30 -21 37 -50q4 -26 -2 -53l-10 -22l-10 -19q-54 -71 -186 -77q-11 -1 -22 0q-123 0 -274 65q-2 0 -63 -141z" />
<glyph unicode="t" horiz-adv-x="835" d="M82 870h182v-571q0 -135 96 -222q84 -76 198 -76q16 0 32 1l164 14l-15 154l-164 -14q-8 -1 -16 0q-55 0 -95 36q-46 42 -46 107v571h297v154h-297v408h-154v-408h-182v-154z" />
<glyph unicode="u" horiz-adv-x="905" d="M84 246q0 -130 90 -200q63 -49 144 -49q36 0 75 9l277 70l32 -76h121v1024h-153v-793l-291 -71q-19 -5 -36 -4q-37 0 -65 21q-42 32 -42 93v754h-152v-778z" />
<glyph unicode="v" horiz-adv-x="886" d="M82 1024l283 -1024h159l281 1024h-160l-201 -731l-202 731h-160z" />
<glyph unicode="w" horiz-adv-x="1327" d="M82 1024l280 -1024h160l142 512l139 -512h160l282 1024h-160l-202 -733l-140 512l60 221h-160l-201 -733l-200 733h-160z" />
<glyph unicode="x" horiz-adv-x="929" d="M82 1024l295 -535l-271 -489h177l182 330l182 -330h176l-270 489l295 535h-176l-207 -375l-207 375h-176z" />
<glyph unicode="y" horiz-adv-x="974" d="M82 1024l285 -1024l88 25l-11 -41l-55 -195q-17 -60 -67 -89q-31 -17 -65 -17q-20 0 -42 6l-39 -150q41 -11 81 -11q75 0 143 39q105 60 139 181l53 195l301 1081h-160l-246 -883l-245 883h-160z" />
<glyph unicode="z" horiz-adv-x="927" d="M82 0h764v154h-567l557 716v154h-713v-154h518l-559 -716v-154z" />
<glyph unicode="{" horiz-adv-x="741" d="M82 528v156q88 0 150.5 61.5t62.5 149.5v252q0 152 106 259t258 107v-155q-88 0 -149 -61.5t-61 -149.5v-252q0 -86 -38 -161.5t-104 -127.5q66 -52 104 -127.5t38 -161.5v-225q0 -88 61 -149.5t149 -61.5v-153q-152 0 -258 106.5t-106 257.5v225q0 88 -62.5 149.5 t-150.5 61.5z" />
<glyph unicode="|" horiz-adv-x="348" d="M82 -272h184v1785h-184v-1785z" />
<glyph unicode="}" horiz-adv-x="741" d="M82 -117v-155q151 0 257.5 107t106.5 259v225q0 88 62.5 149.5t150.5 61.5v154q-88 0 -150.5 61.5t-62.5 149.5v254q0 151 -106.5 257.5t-257.5 106.5v-153q88 0 149.5 -61.5t61.5 -149.5v-254q0 -86 37.5 -161.5t103.5 -127.5q-66 -50 -103.5 -125.5t-37.5 -161.5v-225 q0 -88 -61.5 -149.5t-149.5 -61.5z" />
<glyph unicode="~" horiz-adv-x="1148" d="M82 549q131 92 231 115q126 30 234 -33l4 -2q12 -6 14 -8q143 -56 289 -19q104 23 213 90v187q-132 -99 -248 -127q-128 -30 -235 32l-2 2q-7 2 -17 9q-138 56 -286 18q-87 -19 -197 -80v-184z" />
<glyph unicode="&#xa1;" horiz-adv-x="354" d="M82 836h188v188h-188v-188zM106 -469h162q14 431 -20 1104h-121q-34 -685 -21 -1104z" />
<glyph unicode="&#xa7;" horiz-adv-x="997" d="M82 -23q31 -74 94 -129t148 -81q75 -24 155 -17.5t150 35t127 82t88 123.5q47 112 17.5 219.5t-120.5 179.5q87 58 126.5 154t15.5 202q-30 130 -140 218.5t-247 99.5q-43 4 -62 10q-96 30 -134.5 106t-4.5 156q37 85 136 126.5t200 11.5q106 -34 143 -123l141 59 q-31 73 -93.5 128t-147.5 81q-153 46 -305 -17.5t-215 -203.5q-45 -110 -19 -214.5t111 -176.5q-92 -59 -135 -156.5t-17 -208.5q29 -127 135 -214t240 -101q66 -7 94 -15q96 -29 135 -105.5t4 -154.5q-37 -84 -135 -125.5t-198 -11.5q-54 15 -91 47.5t-53 75.5zM244 676 q-21 85 31.5 153t152.5 78q104 12 193 -47t110 -149q21 -85 -31.5 -153.5t-152.5 -78.5q-104 -12 -193 47t-110 150z" />
<glyph unicode="&#xa8;" horiz-adv-x="559" d="M246 1130h155v154h-155v-154zM487 1130h154v154h-154v-154z" />
<glyph unicode="&#xab;" horiz-adv-x="876" d="M82 514l256 -436h164l-254 436l254 434h-164zM375 514l254 -436h166l-254 436l254 434h-166z" />
<glyph unicode="&#xac;" horiz-adv-x="1228" />
<glyph unicode="&#xad;" horiz-adv-x="1120" d="M82 567h956v154h-956v-154z" />
<glyph unicode="&#xb0;" horiz-adv-x="634" d="M84 1380q12 -97 87.5 -156.5t172.5 -47.5q96 10 157 86t50 172q-12 96 -88 156.5t-172 49.5q-97 -10 -157.5 -86.5t-49.5 -173.5zM207 1395q-6 46 23 82t75 41q44 6 80.5 -23t42.5 -74q5 -46 -23.5 -82.5t-74.5 -42.5q-46 -5 -82.5 24t-40.5 75z" />
<glyph unicode="&#xb1;" horiz-adv-x="1093" d="M82 0h930v129h-930v-129zM82 643h401v-401h127v401h402v129h-402v399h-127v-399h-401v-129z" />
<glyph unicode="&#xb4;" horiz-adv-x="581" d="M82 1253h149l269 263h-240z" />
<glyph unicode="&#xb7;" horiz-adv-x="317" d="M82 438h154v154h-154v-154z" />
<glyph unicode="&#xbb;" horiz-adv-x="874" d="M82 78l254 434l-254 434h164l256 -434l-256 -434h-164zM373 78l256 434l-256 434h166l254 -434l-254 -434h-166z" />
<glyph unicode="&#xbc;" horiz-adv-x="1640" d="M82 1186l115 -105l112 111v-485h156v725h-129zM260 -20h174l819 1536h-174zM1049 227h276v-176h156v176h78v156h-78v393h-133l-299 -424v-125zM1237 383l88 117v-117h-88z" />
<glyph unicode="&#xbd;" horiz-adv-x="1648" d="M82 1186l115 -105l112 111v-485h156v725h-129zM260 -20h174l819 1536h-174zM1049 678l92 -125l37 29q29 23 56.5 32t46 7t32.5 -11l10 -8l4 -4l2 -4l2 -6q21 -71 -80 -199q-68 -87 -180 -196l-12 -13v-129h508v156h-269l25 24q8 9 17 20t19 24t15 20q151 196 105 340 q-10 31 -27 53q-59 85 -167.5 89t-201.5 -72z" />
<glyph unicode="&#xbe;" horiz-adv-x="1699" d="M82 799l31 -27q79 -75 196 -63q99 11 162.5 88t50.5 176q-9 69 -55 125l-10 12l8 12q40 59 31 133q-10 84 -78.5 135t-151.5 42q-77 -9 -131 -66l-26 -29l102 -120l33 40q13 20 39 23q24 3 41.5 -11t19.5 -34q2 -15 -6.5 -29.5t-26.5 -21.5l-8 -2h-123v-154h103 q34 0 59.5 -22t28.5 -52q5 -33 -18 -61.5t-62 -32.5q-44 -6 -80 27l-35 37zM319 -20h175l819 1536h-174zM1108 227h276v-176h156v176h78v156h-78v393h-133l-299 -424v-125zM1296 383l88 117v-117h-88z" />
<glyph unicode="&#xbf;" horiz-adv-x="806" d="M82 -150v-4q0 -129 79.5 -211t196.5 -104q95 -18 193.5 5.5t173.5 86.5l-98 119q-45 -39 -110.5 -55t-129.5 -4q-63 11 -103 47t-46 98v45q4 58 16 94q27 78 111 156l30 27l27 18q104 80 129 209q17 89 -6 256h-156q23 -166 10 -227q-16 -81 -94 -130l-8 -6 q-143 -121 -188 -252q-8 -21 -13 -42.5t-7.5 -41t-3.5 -33t-2 -30.5t-1 -21zM375 836h188v188h-188v-188z" />
<glyph unicode="&#xc0;" d="M82 0h160l129 473h446l129 -473h160l-410 1493h-204zM301 1901l268 -261h154l-182 261h-240zM414 627l180 657l180 -657h-360z" />
<glyph unicode="&#xc1;" d="M82 0l410 1493h204l410 -1493h-160l-129 473h-446l-129 -473h-160zM414 627h360l-180 657zM465 1640l182 261h240l-269 -261h-153z" />
<glyph unicode="&#xc2;" d="M82 0h160l129 473h446l129 -473h160l-410 1493h-204zM356 1640h179l59 105l59 -105h178l-149 261h-176zM414 627l180 657l180 -657h-360z" />
<glyph unicode="&#xc3;" d="M82 0h160l129 473h446l129 -473h160l-410 1493h-204zM322 1640h133q4 28 16 72q10 32 27 49l4 4l69 -63q42 -34 74 -47q53 -22 105 -6q1 1 4 2t4 2q72 35 102 102q25 60 25 146h-131q-5 -75 -13 -93q-11 -23 -34 -34q-31 9 -52 28q-21 16 -51 43q-40 35 -63 43 q-36 16 -74 2l-6 -2q-79 -34 -111 -133q-15 -40 -28 -115zM414 627l180 657l180 -657h-360z" />
<glyph unicode="&#xc4;" d="M82 0h160l129 473h446l129 -473h160l-410 1493h-204zM397 1749h154v152h-154v-152zM414 627l180 657l180 -657h-360zM637 1749h154v152h-154v-152z" />
<glyph unicode="&#xc5;" d="M82 0h160l129 473h446l129 -473h160l-410 1493h-204zM414 627l180 657l180 -657h-360zM420 1688q8 -69 61.5 -113t122.5 -37q69 8 113 62.5t37 123.5t-62.5 112.5t-124.5 35.5q-69 -7 -112 -61.5t-35 -122.5zM510 1696q-3 32 17 56.5t51 29.5q32 3 56.5 -17t27.5 -51 q4 -32 -15.5 -56.5t-52.5 -29.5q-31 -3 -56 17t-28 51z" />
<glyph unicode="&#xc6;" horiz-adv-x="1935" d="M82 0h180l285 471h438v-471h868v154h-714v514h538v153h-538v516h714v156h-868zM639 625l346 569v-569h-346z" />
<glyph unicode="&#xc7;" horiz-adv-x="968" d="M82 297q0 -134 96.5 -221.5t229.5 -75.5l16 2l-72 -45l17 -59l143 -7q16 0 16 -16v-29q0 -17 -12 -29t-29 -12h-92v-77h92q50 0 83.5 33.5t33.5 84.5v29q0 35 -22 57.5t-50 22.5h-77l92 57l340 31l-13 154l-481 -43q-66 -6 -111.5 35.5t-45.5 107.5v897q0 66 45.5 107.5 t111.5 35.5l481 -43l13 154l-479 43q-134 11 -230 -76.5t-96 -220.5v-897z" />
<glyph unicode="&#xc8;" horiz-adv-x="1032" d="M82 0h868v154h-714v514h538v153h-538v516h714v156h-868v-1493zM305 1901l268 -261h154l-182 261h-240z" />
<glyph unicode="&#xc9;" horiz-adv-x="1032" d="M82 0h868v154h-714v514h538v153h-538v516h714v156h-868v-1493zM315 1640h154l266 261h-239z" />
<glyph unicode="&#xca;" horiz-adv-x="1032" d="M82 0h868v154h-714v512h538v155h-538v516h714v156h-868v-1493zM279 1638h178l59 105l59 -105h179l-150 260h-176z" />
<glyph unicode="&#xcb;" horiz-adv-x="1032" d="M82 0h868v154h-714v514h538v153h-538v516h714v156h-868v-1493zM319 1749h154v152h-154v-152zM559 1749h154v152h-154v-152z" />
<glyph unicode="&#xcc;" horiz-adv-x="339" d="M-123 1901l266 -261h156l-182 261h-240zM88 0h154v1493h-154v-1493z" />
<glyph unicode="&#xcd;" horiz-adv-x="380" d="M82 1640l182 261h240l-268 -261h-154zM139 0v1493h154v-1493h-154z" />
<glyph unicode="&#xce;" horiz-adv-x="393" d="M-41 1640h178l60 105l59 -105h178l-149 261h-179zM119 0h153v1493h-153v-1493z" />
<glyph unicode="&#xcf;" horiz-adv-x="311" d="M-41 1749h154v152h-154v-152zM80 0h153v1493h-153v-1493zM199 1749h153v152h-153v-152z" />
<glyph unicode="&#xd1;" horiz-adv-x="1138" d="M82 0h154v1288l608 -1288h213v1491h-154v-1255l-592 1255h-229v-1491zM311 1640h131q5 32 19 72q12 37 24 49l4 4q6 -4 55.5 -48.5t88.5 -61.5q63 -26 104 -6l8 4q74 36 103 102q24 60 24 146h-131v-3q0 -63 -12 -90q-11 -21 -31 -34l-14 2q-16 5 -78 55.5t-78 56.5 q-34 15 -73 2l-6 -2q-79 -35 -111 -133q-13 -35 -27 -115z" />
<glyph unicode="&#xd2;" horiz-adv-x="1212" d="M82 471q0 -195 138 -333t333 -138h106q195 0 333 138t138 333v551q0 195 -138 333t-333 138h-106q-195 0 -333 -138t-138 -333v-551zM236 471v551q0 130 93 223.5t224 93.5h106q132 0 225 -93t93 -224v-551q0 -131 -93 -224t-225 -93h-106q-131 0 -224 93t-93 224z M344 1901l268 -263h154l-180 263h-242z" />
<glyph unicode="&#xd3;" horiz-adv-x="1212" d="M82 471q0 -195 138 -333t333 -138h106q195 0 333 138t138 333v551q0 195 -138 333t-333 138h-106q-195 0 -333 -138t-138 -333v-551zM236 471v551q0 130 93 223.5t224 93.5h106q132 0 225 -93t93 -224v-551q0 -131 -93 -224t-225 -93h-106q-131 0 -224 93t-93 224z M500 1638h155l267 263h-240z" />
<glyph unicode="&#xd4;" horiz-adv-x="1212" d="M82 471q0 -195 138 -333t333 -138h106q195 0 333 138t138 333v551q0 195 -138 333t-333 138h-106q-195 0 -333 -138t-138 -333v-551zM236 471v551q0 130 93 223.5t224 93.5h106q132 0 225 -93t93 -224v-551q0 -131 -93 -224t-225 -93h-106q-131 0 -224 93t-93 224z M369 1638h178l59 105l60 -105h178l-148 263h-178z" />
<glyph unicode="&#xd5;" horiz-adv-x="1212" d="M82 471q0 -195 138 -333t333 -138h106q195 0 333 138t138 333v551q0 195 -138 333t-333 138h-106q-195 0 -333 -138t-138 -333v-551zM236 471v551q0 130 93 223.5t224 93.5h106q132 0 225 -93t93 -224v-551q0 -131 -93 -224t-225 -93h-106q-131 0 -224 93t-93 224z M326 1638h131q14 62 18 74q9 30 25 49l4 4l145 -110q53 -22 105 -6l8 4q74 36 102 102q26 63 23 146h-129q0 -64 -13 -93q-11 -23 -34 -34q-37 11 -103 71q-39 33 -63 43q-38 15 -76 2l-4 -2q-76 -33 -113 -133q-15 -48 -26 -117z" />
<glyph unicode="&#xd6;" horiz-adv-x="1212" d="M82 471q0 -195 138 -333t333 -138h106q195 0 333 138t138 333v551q0 195 -138 333t-333 138h-106q-195 0 -333 -138t-138 -333v-551zM236 471v551q0 130 93 223.5t224 93.5h106q132 0 225 -93t93 -224v-551q0 -131 -93 -224t-225 -93h-106q-131 0 -224 93t-93 224z M410 1747h153v154h-153v-154zM649 1747h156v154h-156v-154z" />
<glyph unicode="&#xd7;" horiz-adv-x="1001" d="M82 385l108 -109l310 310l309 -310l111 109l-312 309l312 310l-111 108l-309 -309l-310 309l-108 -108l309 -310z" />
<glyph unicode="&#xd8;" horiz-adv-x="1214" d="M82 473q0 -168 104 -297l-102 -176h178l41 72q118 -72 252 -72h107q128 0 236.5 63.5t171.5 172.5t63 237v551q0 161 -103 295l103 178h-179l-41 -74q-117 74 -251 74h-107q-196 0 -334.5 -139t-138.5 -334v-551zM236 473v551q0 132 93.5 224.5t225.5 92.5h107 q96 0 172 -51l-562 -964q-36 70 -36 147zM381 207l563 962q35 -65 35 -145v-551q0 -132 -93 -224.5t-224 -92.5h-107q-95 0 -174 51z" />
<glyph unicode="&#xd9;" horiz-adv-x="1124" d="M82 471q0 -195 138 -333t333 -138h18q195 0 333 138t138 333v1022h-153v-1022q0 -131 -93 -223t-225 -92h-18q-131 0 -224 92.5t-93 222.5v1022h-154v-1022zM293 1901l268 -261h154l-183 261h-239z" />
<glyph unicode="&#xda;" horiz-adv-x="1124" d="M82 471v1022h154v-1022q0 -131 93 -224t224 -93h18q132 0 225 93t93 224v1022h153v-1022q0 -195 -138 -333t-333 -138h-18q-195 0 -333 138t-138 333zM410 1640l182 261h239l-268 -261h-153z" />
<glyph unicode="&#xdb;" horiz-adv-x="1124" d="M82 471q0 -195 138 -333t333 -138h18q195 0 333 138t138 333v1022h-153v-1022q0 -132 -93 -224.5t-225 -92.5h-18q-131 0 -224 92.5t-93 224.5v1022h-154v-1022zM326 1640h176l59 105l62 -105h176l-148 261h-178z" />
<glyph unicode="&#xdc;" horiz-adv-x="1124" d="M82 471q0 -195 138 -333t333 -138h18q195 0 333 138t138 333v1022h-153v-1022q0 -132 -93 -224.5t-225 -92.5h-18q-131 0 -223 92.5t-94 224.5v1022h-154v-1022zM367 1749h153v152h-153v-152zM606 1749h154v152h-154v-152z" />
<glyph unicode="&#xdd;" horiz-adv-x="1222" d="M82 1493h172l356 -700l359 700h172l-453 -889v-604h-153v604zM446 1640l183 261h239l-266 -261h-156z" />
<glyph unicode="&#xdf;" horiz-adv-x="884" d="M82 0h156v743q0 52 35.5 88.5t88.5 38.5h101q52 0 88.5 -37t36.5 -90v-49q0 -53 -36.5 -90t-88.5 -37h-82v-151h57q88 0 149.5 -61.5t61.5 -147.5v-385q0 -66 -45.5 -106.5t-111.5 -34.5l-168 14v-154l153 -12q134 -12 230 74.5t96 218.5v385q0 86 -39 161.5t-107 127.5 q83 80 86 184v63q0 116 -82.5 198.5t-197.5 82.5h-101q-60 0 -124 -31v201q0 66 45.5 107.5t111.5 35.5l15 -2l26 154l-28 2q-133 12 -228.5 -75.5t-97.5 -221.5v-1194z" />
<glyph unicode="&#xe0;" horiz-adv-x="921" d="M82 231q0 -97 68.5 -165t166.5 -68h115q138 0 254 82l33 -80h121v725q0 135 -96 222.5t-230 76.5l-395 -37l14 -153l395 36q66 4 111 -37.5t47 -107.5v-160h-405q-82 0 -140.5 -57.5t-58.5 -138.5v-138zM238 231v138q0 18 12.5 30.5t30.5 12.5h405v-95q-33 -75 -101 -120 t-153 -45h-115q-33 0 -56 23t-23 56zM238 1434l266 -263h151l-178 263h-239z" />
<glyph unicode="&#xe1;" horiz-adv-x="921" d="M82 231q0 -97 68 -165t165 -68h117q139 0 252 82l33 -80h121v725q0 135 -96 222.5t-230 76.5l-393 -35l12 -155l395 36q66 5 112 -37t46 -108v-160h-405q-82 0 -139.5 -57t-57.5 -139v-138zM236 231v138q0 18 12.5 30.5t30.5 12.5h405v-95q-33 -75 -100.5 -120 t-151.5 -45h-117q-32 0 -55.5 23.5t-23.5 55.5zM315 1171h150l268 263h-239z" />
<glyph unicode="&#xe2;" horiz-adv-x="921" d="M82 233q0 -98 68.5 -166.5t166.5 -68.5h115q138 0 254 82l33 -80h121v727q0 134 -96.5 221.5t-229.5 75.5l-395 -35l14 -153l395 34q66 6 111 -35.5t47 -107.5v-160h-405q-82 0 -140.5 -57.5t-58.5 -140.5v-136zM238 233v136q0 19 12 31t31 12h405v-95q-33 -73 -101 -118 t-153 -45h-115q-34 0 -56.5 22.5t-22.5 56.5zM270 1174h179l59 104l59 -104h178l-149 260h-178z" />
<glyph unicode="&#xe3;" horiz-adv-x="921" d="M82 231q0 -97 68 -165t165 -68h117q138 0 254 82l33 -80h121v725q0 135 -96 222.5t-230 76.5l-395 -35l14 -155l393 36q66 5 112 -37t46 -108v-160h-403q-83 0 -141 -57t-58 -139v-138zM221 1171h131q12 54 19 74q8 25 28 53l72 -63q42 -34 74 -47q60 -25 102 -8l10 4 q71 29 103 104q24 57 24 146h-131q0 -66 -12 -93q-11 -21 -35 -36q-84 57 -102 73q-38 33 -64 43q-36 16 -73 2l-7 -2q-75 -32 -112 -133q-16 -51 -27 -117zM236 231v138q0 19 13 31t32 12h405v-95q-33 -74 -101.5 -119.5t-152.5 -45.5h-117q-32 0 -55.5 23.5t-23.5 55.5z " />
<glyph unicode="&#xe4;" horiz-adv-x="921" d="M82 231q0 -97 69 -165t166 -68h115q138 0 254 82l33 -80h121v725q0 135 -96 222.5t-230 76.5l-395 -37l14 -153l395 36q66 4 111 -37.5t47 -107.5v-160h-405q-82 0 -140.5 -57.5t-58.5 -138.5v-138zM238 231v138q0 18 12.5 30.5t30.5 12.5h405v-95q-33 -75 -101 -120 t-153 -45h-115q-33 0 -56 23t-23 56zM307 1280h156v154h-156v-154zM549 1280h153v154h-153v-154z" />
<glyph unicode="&#xe5;" horiz-adv-x="921" d="M82 233q0 -97 68.5 -166t166.5 -69h117q136 0 252 82l33 -80h121v727q0 135 -96 222.5t-230 76.5l-395 -35l14 -155l395 36q66 5 112 -37t46 -108v-160h-405q-83 0 -141 -57.5t-58 -140.5v-136zM238 233v136q0 19 12 32t31 13h405v-95q-33 -75 -100.5 -120t-151.5 -45 h-117q-34 0 -56.5 22.5t-22.5 56.5zM326 1243q8 -69 63 -112.5t125 -36.5q69 8 113 63t37 125q-8 71 -63.5 115t-125.5 35q-69 -7 -113 -62.5t-36 -126.5zM418 1253q-5 32 15 57.5t52 28.5q32 5 57.5 -15t28.5 -52q5 -32 -15 -57.5t-52 -28.5t-57.5 16.5t-28.5 50.5z" />
<glyph unicode="&#xe6;" horiz-adv-x="1499" d="M82 231q0 -97 68 -165t165 -68h117q177 0 307 127q43 -64 115.5 -97.5t157.5 -27.5l393 37l-12 153l-396 -34q-66 -6 -111.5 35.5t-45.5 107.5v113h577v331q0 117 -81.5 199t-198.5 82h-172q-125 0 -207 -92q-45 48 -109 73t-135 19l-395 -35l14 -153l393 34 q66 6 112 -36t46 -109v-160h-403q-83 0 -141 -57t-58 -139v-138zM236 231v138q0 19 13 31t32 12h405v-95q-33 -73 -102 -119t-152 -46h-117q-32 0 -55.5 23.5t-23.5 55.5zM840 567v176q0 53 36.5 90t88.5 37h172q53 0 90 -37t37 -90v-176h-424z" />
<glyph unicode="&#xe7;" horiz-adv-x="882" d="M82 297q0 -127 87.5 -213t213.5 -84l-66 -43l17 -57l143 -6q17 0 17 -17v-31q0 -16 -12 -28.5t-29 -12.5h-95v-75h95q49 0 82.5 33t33.5 83v31q0 35 -22.5 57.5t-50.5 22.5h-76l84 53l297 27l-13 151l-395 -34q-66 -5 -111 36.5t-46 108.5v426q2 66 46.5 107.5 t110.5 35.5l395 -34l13 153l-393 35q-134 12 -230 -75t-96 -222v-428z" />
<glyph unicode="&#xe8;" horiz-adv-x="897" d="M82 295q0 -135 96 -223t230 -76l397 35l-14 155l-396 -36q-67 -4 -113 37.5t-46 107.5v115h579v331q0 117 -81.5 200t-198.5 83h-173q-117 0 -198.5 -83t-81.5 -200v-446zM207 1432l268 -261h150l-179 261h-239zM236 563v178q0 53 37 90t89 37h173q53 0 90 -37t37 -90 v-178h-426z" />
<glyph unicode="&#xe9;" horiz-adv-x="897" d="M82 297q0 -135 96 -223t230 -76l397 35l-14 155l-396 -36q-66 -6 -111.5 36.5t-47.5 108.5v115h579v331q0 116 -81.5 198.5t-198.5 82.5h-173q-117 0 -198.5 -82.5t-81.5 -198.5v-446zM236 565v178q0 52 36.5 88.5t89.5 36.5h173q53 0 90 -36.5t37 -88.5v-178h-426z M315 1171h150l268 263h-239z" />
<glyph unicode="&#xea;" horiz-adv-x="897" d="M82 297q0 -134 96.5 -221.5t229.5 -75.5l395 35l-12 153l-396 -34q-66 -6 -111.5 35.5t-45.5 107.5v115h577v331q0 117 -81.5 199t-198.5 82h-173q-116 0 -198 -82t-82 -199v-446zM238 565v178q0 53 36 90t88 37h173q53 0 90 -37t37 -90v-178h-424zM246 1171h178l59 105 l60 -105h178l-148 263h-178z" />
<glyph unicode="&#xeb;" horiz-adv-x="897" d="M82 297q0 -134 96.5 -221.5t229.5 -75.5l395 35l-15 153l-395 -34q-66 -6 -111.5 35.5t-45.5 107.5v115h579v331q0 117 -82 199t-198 82h-173q-117 0 -198.5 -82t-81.5 -199v-446zM236 565v178q0 53 37 90t89 37h173q52 0 88 -37t36 -90v-178h-423zM279 1280h153v154 h-153v-154zM518 1280h156v154h-156v-154z" />
<glyph unicode="&#xec;" horiz-adv-x="380" d="M-123 1434l268 -263h154l-182 263h-240zM145 0h154v1024h-154v-1024z" />
<glyph unicode="&#xed;" horiz-adv-x="380" d="M82 0h154v1024h-154v-1024zM82 1171h154l268 263h-240z" />
<glyph unicode="&#xee;" horiz-adv-x="393" d="M-41 1171h178l60 107l59 -107h178l-149 263h-176zM119 0h155v1024h-155v-1024z" />
<glyph unicode="&#xef;" horiz-adv-x="313" d="M-41 1280h154v154h-154v-154zM80 0h153v1024h-153v-1024zM199 1280h155v154h-155v-154z" />
<glyph unicode="&#xf1;" horiz-adv-x="905" d="M82 0h156v793l288 71q61 15 102.5 -15.5t43.5 -92.5v-756h151v780q0 129 -91.5 199.5t-217.5 38.5l-278 -70l-31 76h-123v-1024zM172 1174h131q14 59 19 73q9 28 28 51l72 -61q47 -38 74 -47q59 -29 100 -10l12 6q74 36 103 104q24 57 24 144h-131q-4 -73 -12 -91 q-12 -24 -35 -36q-140 104 -166 114q-39 17 -74 2l-6 -2q-76 -32 -112 -131q-16 -52 -27 -116z" />
<glyph unicode="&#xf2;" horiz-adv-x="970" d="M82 389q0 -162 114.5 -276.5t276.5 -114.5h25q161 0 276 115t115 276v244q0 162 -114.5 276.5t-276.5 114.5h-25q-163 0 -277 -114t-114 -277v-244zM221 1432l266 -261h152l-178 261h-240zM236 389v244q0 98 69.5 167.5t167.5 69.5h25q98 0 167.5 -69.5t69.5 -167.5v-244 q0 -98 -69.5 -166.5t-167.5 -68.5h-25q-98 0 -167.5 68.5t-69.5 166.5z" />
<glyph unicode="&#xf3;" horiz-adv-x="970" d="M82 389q0 -161 115 -275t276 -114h25q163 0 277 114t114 275v244q0 163 -114 277t-277 114h-25q-162 0 -276.5 -114.5t-114.5 -276.5v-244zM236 389v244q0 98 69.5 167.5t167.5 69.5h25q98 0 167.5 -69.5t69.5 -167.5v-244q0 -97 -69.5 -166t-167.5 -69h-25 q-98 0 -167.5 69t-69.5 166zM319 1171h150l266 261h-239z" />
<glyph unicode="&#xf4;" horiz-adv-x="972" d="M82 389q0 -163 115 -278t276 -115h27q161 0 276 115t115 278v244q0 162 -114.5 276.5t-276.5 114.5h-27q-162 0 -276.5 -114.5t-114.5 -276.5v-244zM236 389v244q0 98 69.5 167.5t167.5 69.5h27q98 0 167.5 -69.5t69.5 -167.5v-244q0 -98 -69.5 -167.5t-167.5 -69.5h-27 q-98 0 -167.5 69.5t-69.5 167.5zM248 1174h178l61 104l60 -104h178l-150 260h-178z" />
<glyph unicode="&#xf5;" horiz-adv-x="970" d="M82 389q0 -161 115 -276t276 -115h27q161 0 275 115t114 276v244q0 161 -114 276t-275 115h-27q-161 0 -276 -115t-115 -276v-244zM205 1171h131q14 62 18 74q7 22 29 53l72 -63q43 -35 73 -47q55 -23 103 -8l10 4q75 40 102 104q26 63 23 144h-129q-4 -73 -12 -91 q-9 -22 -37 -36q-24 10 -81 58t-83 58q-36 16 -74 2l-6 -2q-79 -34 -111 -133q-15 -42 -28 -117zM238 389v244q0 98 68.5 166.5t166.5 68.5h27q97 0 166 -68.5t69 -166.5v-244q0 -98 -69 -167.5t-166 -69.5h-27q-98 0 -166.5 69.5t-68.5 167.5z" />
<glyph unicode="&#xf6;" horiz-adv-x="972" d="M82 389q0 -162 114.5 -276.5t276.5 -114.5h27q162 0 276.5 114.5t114.5 276.5v244q0 161 -115 276t-276 115h-27q-161 0 -276 -115t-115 -276v-244zM236 389v244q0 98 69.5 167.5t167.5 69.5h27q97 0 166 -69.5t69 -167.5v-244q0 -98 -69 -167.5t-166 -69.5h-27 q-98 0 -167.5 69.5t-69.5 167.5zM289 1278h153v152h-153v-152zM528 1278h156v152h-156v-152z" />
<glyph unicode="&#xf7;" horiz-adv-x="931" d="M82 643h768v131h-768v-131zM387 369h158v157h-158v-157zM387 860h158v158h-158v-158z" />
<glyph unicode="&#xf8;" horiz-adv-x="974" d="M82 0h180l29 47q86 -47 186 -47h27q161 0 275 114t114 277v242q0 139 -88 248l88 143h-180l-27 -45q-85 45 -182 45h-27q-161 0 -275 -114t-114 -277v-242q0 -136 84 -244zM242 391v242q0 98 69 167.5t166 69.5h27q51 0 100 -22l-342 -555q-20 52 -20 98zM373 178 l344 559q22 -52 22 -104v-242q0 -98 -68.5 -167.5t-166.5 -69.5h-27q-51 0 -104 24z" />
<glyph unicode="&#xf9;" horiz-adv-x="905" d="M82 246q1 -130 92 -200.5t219 -39.5l277 70l32 -76h121v1024h-153v-791l-291 -73q-60 -15 -101.5 17t-41.5 93v754h-154v-778zM221 1434l268 -263h150l-176 263h-242z" />
<glyph unicode="&#xfa;" horiz-adv-x="905" d="M82 246q2 -131 93 -200.5t218 -37.5l277 68l32 -76h121v1024h-153v-791l-291 -73q-60 -15 -101.5 17t-41.5 93v754h-154v-778zM301 1174h152l266 260h-240z" />
<glyph unicode="&#xfb;" horiz-adv-x="905" d="M84 246q0 -129 91 -199.5t218 -38.5l277 70l32 -78h121v1024h-153v-791l-291 -73q-60 -14 -101.5 17.5t-41.5 92.5v754h-152v-778zM215 1174h178l60 104l59 -104h178l-147 260h-178z" />
<glyph unicode="&#xfc;" horiz-adv-x="905" d="M82 244q0 -129 92 -199.5t219 -38.5l277 70l32 -76h121v1024h-153v-793l-291 -71q-60 -15 -101.5 16t-41.5 92v756h-154v-780zM254 1280h156v152h-156v-152zM496 1280h153v152h-153v-152z" />
<glyph unicode="&#xfd;" horiz-adv-x="974" d="M82 1024l285 -1024l88 25l-11 -41l-55 -195q-17 -60 -66.5 -88.5t-107.5 -11.5l-39 -150q119 -32 224 28t139 181l53 195l301 1081h-160l-246 -883l-245 883h-160zM330 1171h149l269 261h-242z" />
<glyph unicode="&#xff;" horiz-adv-x="974" d="M82 1024l285 -1024l88 25l-11 -41l-55 -195q-17 -60 -66.5 -88.5t-107.5 -11.5l-39 -150q119 -32 224 28t139 181l53 195l301 1081h-160l-246 -883l-245 883h-160zM297 1282h156v152h-156v-152zM539 1282h153v152h-153v-152z" />
<glyph unicode="&#x152;" horiz-adv-x="1845" d="M82 471q0 -195 138 -333t333 -138h106q123 0 236 63v-63h868v154h-714v514h538v153h-538v516h714v156h-868v-63q-113 63 -236 63h-106q-195 0 -333 -138t-138 -333v-551zM236 471v551q0 130 93 222.5t224 92.5h106q143 0 236 -104v-973q-93 -104 -236 -104h-106 q-131 0 -224 92.5t-93 222.5z" />
<glyph unicode="&#x153;" horiz-adv-x="1550" d="M82 387q0 -161 115 -276t276 -115h27q169 0 288 129q45 -64 117.5 -98t155.5 -27l395 35l-14 153l-395 -34q-66 -6 -111 35.5t-47 107.5v115h579v331q0 116 -82.5 198.5t-197.5 82.5h-172q-71 0 -133 -33.5t-99 -91.5q-55 59 -128.5 92t-155.5 33h-27q-161 0 -276 -115 t-115 -276v-246zM236 387v246q0 98 69.5 166.5t167.5 68.5h27q95 0 163.5 -66t71.5 -161v-254q0 -97 -69 -166t-166 -69h-27q-98 0 -167.5 69t-69.5 166zM889 565v178q0 52 37 88.5t90 36.5h172q52 0 88.5 -36t36.5 -89v-178h-424z" />
<glyph unicode="&#x178;" horiz-adv-x="1222" d="M82 1491l453 -887v-604h153v604l453 887h-174l-357 -698l-356 698h-172zM414 1749h153v152h-153v-152zM653 1749h154v152h-154v-152z" />
<glyph unicode="&#x2c6;" horiz-adv-x="638" d="M82 1255h178l59 105l60 -105h178l-149 261h-179z" />
<glyph unicode="&#x2dc;" horiz-adv-x="727" d="M82 1253h131q14 62 18 74q7 22 29 53l72 -63q42 -34 74 -47q60 -25 102 -8l10 4q71 29 103 104q24 57 24 146h-131q0 -66 -12 -93q-11 -23 -35 -37q-84 58 -102 74q-38 33 -64 43q-36 16 -74 2l-6 -2q-75 -32 -112 -133q-16 -51 -27 -117z" />
<glyph unicode="&#x2000;" horiz-adv-x="950" />
<glyph unicode="&#x2001;" horiz-adv-x="1901" />
<glyph unicode="&#x2002;" horiz-adv-x="950" />
<glyph unicode="&#x2003;" horiz-adv-x="1901" />
<glyph unicode="&#x2004;" horiz-adv-x="633" />
<glyph unicode="&#x2005;" horiz-adv-x="475" />
<glyph unicode="&#x2006;" horiz-adv-x="316" />
<glyph unicode="&#x2007;" horiz-adv-x="316" />
<glyph unicode="&#x2008;" horiz-adv-x="237" />
<glyph unicode="&#x2009;" horiz-adv-x="380" />
<glyph unicode="&#x200a;" horiz-adv-x="105" />
<glyph unicode="&#x2010;" horiz-adv-x="1120" d="M82 567h956v154h-956v-154z" />
<glyph unicode="&#x2011;" horiz-adv-x="1120" d="M82 567h956v154h-956v-154z" />
<glyph unicode="&#x2012;" horiz-adv-x="1120" d="M82 567h956v154h-956v-154z" />
<glyph unicode="&#x2013;" horiz-adv-x="647" d="M82 668h483v153h-483v-153z" />
<glyph unicode="&#x2014;" horiz-adv-x="2195" d="M82 567h2032v156h-2032v-156z" />
<glyph unicode="&#x2018;" horiz-adv-x="352" d="M82 1034h188v187h-108v96q0 36 22 61t54 25h32v90h-32q-65 0 -110.5 -51.5t-45.5 -124.5v-283z" />
<glyph unicode="&#x2019;" horiz-adv-x="352" d="M82 1034h33q64 0 109.5 52t45.5 124v283h-188v-186h108v-97q0 -35 -22 -60.5t-53 -25.5h-33v-90z" />
<glyph unicode="&#x201a;" horiz-adv-x="350" d="M82 0h108v-96q0 -35 -22 -60.5t-53 -25.5h-33v-90h33q63 0 108 52t45 124v282h-186v-186z" />
<glyph unicode="&#x201c;" horiz-adv-x="657" d="M82 1034h188v187h-108v96q0 37 22 61.5t54 24.5h32v90h-32q-65 0 -110.5 -51.5t-45.5 -124.5v-283zM387 1034h188v187h-108v96q0 37 22 61.5t54 24.5h32v90h-32q-65 0 -110.5 -51.5t-45.5 -124.5v-283z" />
<glyph unicode="&#x201d;" horiz-adv-x="655" d="M82 1034h33q63 0 108 52t45 124v283h-186v-186h108v-97q0 -35 -22 -60.5t-53 -25.5h-33v-90zM387 1034h33q64 0 108.5 51.5t44.5 124.5v283h-186v-186h109v-97q0 -35 -22.5 -60.5t-53.5 -25.5h-33v-90z" />
<glyph unicode="&#x201e;" horiz-adv-x="655" d="M82 0h108v-96q0 -35 -22 -60.5t-53 -25.5h-33v-90h33q63 0 108 52t45 124v282h-186v-186zM387 0h109v-96q0 -35 -22.5 -60.5t-53.5 -25.5h-33v-90h33q64 0 108.5 51.5t44.5 124.5v282h-186v-186z" />
<glyph unicode="&#x2026;" horiz-adv-x="2113" d="M492 0h188v188h-188v-188zM963 0h188v188h-188v-188zM1434 0h188v188h-188v-188z" />
<glyph unicode="&#x202f;" horiz-adv-x="380" />
<glyph unicode="&#x2039;" horiz-adv-x="583" d="M82 512l256 -434h164l-254 434l254 434h-164z" />
<glyph unicode="&#x203a;" horiz-adv-x="583" d="M82 78l254 434l-254 434h166l254 -434l-254 -434h-166z" />
<glyph unicode="&#x205f;" horiz-adv-x="475" />
<glyph unicode="&#x20ac;" horiz-adv-x="1349" d="M82 565h147q16 -157 103 -286t225.5 -204t298.5 -75q234 0 412 154l-94 129q-136 -123 -318 -123q-177 0 -309.5 116t-157.5 289h651v160h-655v109h655v159h-637q43 149 168 244.5t285 95.5q177 0 309 -116l95 129q-174 147 -404 147q-225 0 -398 -142t-218 -358h-156 v-159h141v-109h-143v-160z" />
<glyph unicode="&#x25fc;" horiz-adv-x="1024" d="M0 0v1024h1024v-1024h-1024z" />
</font>
</defs>
</svg>
