<?xml version="1.0" standalone="no"?>
<!DOCTYPE svg PUBLIC "-//W3C//DTD SVG 20010904//EN"
 "http://www.w3.org/TR/2001/REC-SVG-20010904/DTD/svg10.dtd">
<svg version="1.0" xmlns="http://www.w3.org/2000/svg"
 width="299.000000pt" height="299.000000pt" viewBox="0 0 299.000000 299.000000"
 preserveAspectRatio="xMidYMid meet">
<metadata>
Created by potrace 1.11, written by Peter Selinger 2001-2013
</metadata>
<g transform="translate(0.000000,299.000000) scale(0.100000,-0.100000)"
fill="#000000" stroke="none">
<path d="M0 1495 l0 -1495 1495 0 1495 0 0 1495 0 1495 -1495 0 -1495 0 0
-1495z m1776 1060 c384 -110 661 -411 745 -810 8 -34 13 -121 12 -200 -1 -171
-28 -287 -103 -440 -44 -92 -168 -263 -196 -272 -6 -2 -30 37 -53 86 l-41 90
40 53 c50 66 101 170 132 268 20 65 23 96 23 230 0 135 -3 165 -23 230 -89
285 -303 497 -587 581 -100 30 -306 37 -408 15 -162 -36 -292 -104 -405 -211
-122 -115 -201 -241 -244 -392 -30 -103 -33 -332 -5 -433 22 -83 93 -231 140
-292 l37 -48 -41 -82 c-22 -46 -43 -86 -48 -91 -10 -10 -86 78 -143 168 -59
91 -91 162 -125 271 -26 84 -27 100 -27 279 0 223 13 286 93 450 167 341 493
562 861 584 139 8 257 -3 366 -34z m-420 -462 c-31 -61 -40 -71 -91 -97 -164
-85 -267 -249 -268 -431 0 -44 5 -103 13 -130 12 -50 12 -51 -27 -130 l-40
-79 -23 44 c-65 128 -88 303 -56 430 56 221 201 380 418 459 66 25 102 29 106
14 2 -6 -12 -42 -32 -80z m422 33 c169 -85 295 -242 337 -418 33 -140 10 -331
-52 -437 l-26 -45 -39 78 -39 78 15 68 c19 82 20 130 5 202 -33 151 -134 282
-272 349 -38 18 -49 32 -80 95 -21 41 -37 78 -37 83 0 16 117 -17 188 -53z
m-4 -683 c152 -342 276 -627 276 -635 0 -16 -111 -60 -221 -87 -249 -63 -541
-52 -774 29 -49 18 -98 34 -107 37 -10 3 -18 11 -18 18 0 12 509 1166 546
1236 8 17 17 29 19 27 1 -1 127 -283 279 -625z m-742 -749 c370 -104 539 -104
905 -2 145 40 150 38 204 -76 45 -98 48 -120 15 -141 -34 -23 -205 -71 -381
-107 -263 -54 -429 -43 -775 49 -219 58 -223 63 -162 196 38 80 60 106 90 107
7 0 54 -12 104 -26z"/>
<path d="M1444 1696 c-94 -42 -102 -176 -13 -222 39 -20 88 -18 126 6 40 24
56 53 56 102 0 86 -92 149 -169 114z"/>
<path d="M1209 1205 c-63 -34 -80 -128 -34 -184 67 -79 186 -52 215 48 28 99
-88 187 -181 136z"/>
<path d="M1678 1034 c-74 -40 -76 -160 -4 -208 31 -20 98 -21 135 -1 30 15 61
69 61 105 0 36 -28 85 -59 103 -35 21 -96 21 -133 1z"/>
</g>
</svg>
