<?xml version="1.0" standalone="no"?>
<!DOCTYPE svg PUBLIC "-//W3C//DTD SVG 20010904//EN"
 "http://www.w3.org/TR/2001/REC-SVG-20010904/DTD/svg10.dtd">
<svg version="1.0" xmlns="http://www.w3.org/2000/svg"
 width="600.000000pt" height="600.000000pt" viewBox="0 0 600.000000 600.000000"
 preserveAspectRatio="xMidYMid meet">
<metadata>
Created by potrace 1.11, written by Peter Selinger 2001-2013
</metadata>
<g transform="translate(0.000000,600.000000) scale(0.100000,-0.100000)"
fill="#000000" stroke="none">
<path d="M0 3000 l0 -3000 3000 0 3000 0 0 3000 0 3000 -3000 0 -3000 0 0
-3000z m3020 2826 c0 -3 -4 -8 -10 -11 -5 -3 -10 -1 -10 4 0 6 5 11 10 11 6 0
10 -2 10 -4z m-2190 -250 c0 -3 -4 -8 -10 -11 -5 -3 -10 -1 -10 4 0 6 5 11 10
11 6 0 10 -2 10 -4z m1685 -86 c0 -22 -29 -18 -33 3 -3 14 1 18 15 15 10 -2
18 -10 18 -18z m910 -40 c3 -5 1 -10 -4 -10 -6 0 -11 5 -11 10 0 6 2 10 4 10
3 0 8 -4 11 -10z m-3070 -30 c3 -5 -1 -10 -10 -10 -9 0 -13 5 -10 10 3 6 8 10
10 10 2 0 7 -4 10 -10z m4655 0 c0 -5 -4 -10 -10 -10 -5 0 -10 5 -10 10 0 6 5
10 10 10 6 0 10 -4 10 -10z m490 0 c0 -5 -5 -10 -11 -10 -5 0 -7 5 -4 10 3 6
8 10 11 10 2 0 4 -4 4 -10z m-2385 -284 c391 -20 849 -216 1139 -487 166 -154
325 -367 428 -571 16 -32 33 -58 38 -58 12 0 52 -100 46 -116 -3 -8 -2 -13 3
-10 21 13 93 -240 111 -394 12 -92 9 -378 -4 -430 -3 -14 -10 -50 -15 -80 -24
-132 -55 -257 -71 -280 -11 -16 -7 14 10 75 43 151 65 528 40 675 -5 30 -11
73 -14 95 -8 61 -25 148 -32 154 -7 7 -1 -43 16 -132 12 -64 21 -161 24 -252
l1 -60 -41 3 c-27 2 -62 -5 -103 -23 -34 -14 -66 -23 -71 -20 -6 4 -10 27 -10
53 0 61 -11 122 -21 122 -9 0 -5 -103 5 -119 4 -6 3 -11 -2 -11 -5 0 -10 -40
-11 -89 -1 -49 -8 -129 -15 -178 -15 -98 -61 -259 -78 -269 -6 -4 -8 0 -4 12
3 11 17 84 31 164 48 274 43 643 -11 725 -8 12 -16 36 -17 54 -1 17 -6 31 -11
31 -4 0 -6 9 -3 20 3 11 1 20 -5 20 -5 0 -6 5 -3 10 3 6 -1 13 -9 16 -9 3 -16
14 -16 23 0 24 -57 131 -133 251 -68 108 -181 242 -277 327 -58 52 -175 143
-183 143 -3 0 -42 23 -87 50 -45 28 -92 55 -106 60 -23 9 -99 42 -139 60 -154
71 -517 117 -731 91 -136 -16 -308 -56 -389 -91 -203 -87 -267 -122 -382 -206
-114 -84 -200 -163 -274 -250 -35 -42 -69 -81 -74 -88 -24 -26 -116 -176 -147
-238 -18 -38 -40 -68 -48 -68 -11 0 -12 -2 -3 -8 10 -6 9 -16 -6 -44 -10 -20
-24 -57 -31 -82 -7 -25 -17 -46 -22 -46 -6 0 -7 -7 -4 -17 8 -19 -12 -83 -25
-83 -6 0 -7 -16 -4 -37 4 -25 3 -33 -3 -25 -12 18 -13 0 -14 -213 0 -182 21
-354 63 -497 32 -111 36 -145 7 -68 -7 17 -11 21 -17 12 -10 -16 -32 53 -62
188 -15 68 -23 151 -28 295 -4 110 -8 165 -9 123 -2 -62 -5 -79 -19 -86 -10
-5 -63 -12 -118 -16 l-101 -6 1 104 c0 59 4 102 9 99 5 -4 7 6 4 21 -3 14 -1
26 5 26 6 0 8 2 5 5 -3 3 -12 3 -20 0 -12 -5 -15 -23 -14 -81 0 -41 -1 -74 -4
-74 -3 0 -6 -32 -7 -70 -1 -42 2 -68 8 -65 13 9 11 -19 -2 -32 -9 -9 -8 -16 5
-28 19 -19 21 -36 4 -33 -13 3 -13 -12 -3 -117 7 -73 16 -125 31 -188 20 -81
12 -102 -10 -26 -48 165 -59 251 -63 472 -4 195 -2 230 17 320 12 56 28 116
36 134 8 17 14 36 14 42 0 9 28 85 73 195 45 113 150 304 191 349 9 9 16 20
16 23 0 19 153 204 232 282 332 325 762 514 1233 541 66 4 134 6 150 4 17 -1
75 -5 130 -7z m-2577 -84 c2 -7 -6 -12 -17 -12 -21 0 -27 11 -14 24 9 9 26 2
31 -12z m-283 -22 c3 -5 1 -10 -4 -10 -6 0 -11 5 -11 10 0 6 2 10 4 10 3 0 8
-4 11 -10z m75 -340 c6 -12 5 -23 -4 -35 -17 -24 -56 -11 -56 19 0 44 39 55
60 16z m1170 0 c0 -5 -4 -10 -10 -10 -5 0 -10 5 -10 10 0 6 5 10 10 10 6 0 10
-4 10 -10z m120 -41 c0 -5 -4 -9 -10 -9 -5 0 -10 7 -10 16 0 8 5 12 10 9 6 -3
10 -10 10 -16z m4330 17 c0 -11 -19 -15 -25 -6 -3 5 1 10 9 10 9 0 16 -2 16
-4z m-1620 -26 c0 -5 -4 -10 -9 -10 -6 0 -13 5 -16 10 -3 6 1 10 9 10 9 0 16
-4 16 -10z m1120 -130 c0 -11 -6 -20 -14 -20 -18 0 -29 16 -21 30 11 18 35 11
35 -10z m-4720 -20 c0 -5 -5 -10 -11 -10 -5 0 -7 5 -4 10 3 6 8 10 11 10 2 0
4 -4 4 -10z m2012 -177 c-21 -38 -55 -103 -76 -146 -38 -77 -40 -80 -105 -109
-135 -63 -263 -165 -361 -288 -23 -30 -47 -54 -51 -53 -5 2 -6 -3 -3 -10 3 -8
-5 -25 -16 -38 -12 -13 -19 -18 -15 -11 3 6 1 12 -4 12 -14 0 -14 -17 -1 -25
8 -5 7 -11 -1 -21 -10 -12 -14 -12 -21 -2 -5 8 -6 -1 -3 -22 3 -19 3 -29 -1
-22 -3 6 -9 12 -14 12 -12 0 -19 -39 -8 -46 5 -3 3 -11 -5 -17 -16 -13 -31
-60 -16 -51 17 10 9 -19 -8 -32 -28 -20 -22 -233 11 -397 14 -69 26 -129 26
-132 0 -2 -18 -14 -40 -25 -21 -11 -44 -29 -50 -39 -35 -67 -70 -60 -95 17
-10 31 -21 61 -24 67 -3 5 -5 19 -6 30 0 24 37 63 43 45 3 -9 7 -8 13 1 7 11
9 10 9 -3 0 -10 5 -18 10 -18 6 0 10 8 10 18 0 14 2 15 10 2 6 -10 10 -11 10
-2 0 6 4 12 9 12 4 0 16 -30 26 -66 14 -53 20 -63 28 -49 6 12 4 37 -7 79 -26
102 -38 185 -38 280 -1 90 -1 90 -11 39 l-10 -53 -51 0 c-28 0 -56 4 -62 8 -6
4 -14 40 -16 81 -3 40 -2 68 2 61 5 -8 9 -5 12 8 4 15 1 20 -12 19 -53 -4 -31
-412 30 -572 13 -34 7 -43 -7 -12 -37 76 -93 332 -93 423 0 96 26 227 57 288
25 49 31 56 35 38 4 -12 3 -22 -2 -22 -4 0 -12 -18 -18 -40 -9 -35 -8 -39 4
-29 8 6 14 8 15 3 0 -5 4 0 8 11 5 12 4 23 -3 27 -7 5 -4 8 7 8 9 0 17 7 17
15 0 8 -4 15 -9 15 -13 0 -23 48 -16 72 4 12 12 17 22 14 12 -5 13 0 8 24 -5
22 -3 32 9 36 9 3 14 10 11 15 -6 9 40 94 85 154 16 22 42 58 56 80 97 143
298 284 514 359 88 30 143 44 187 45 l31 1 -36 -67z m593 25 c239 -81 400
-198 548 -399 97 -131 128 -182 115 -190 -5 -4 -3 -9 6 -12 9 -4 16 -13 16
-22 0 -8 6 -15 14 -15 24 0 66 -110 91 -244 21 -111 19 -249 -6 -354 -41 -176
-51 -212 -61 -212 -5 0 -7 4 -4 8 3 5 7 22 10 38 3 16 12 70 20 119 9 50 16
101 15 115 l-1 25 -8 -25 c-7 -22 -8 -21 -9 13 -1 21 3 36 8 33 5 -4 10 19 10
51 0 67 -30 253 -41 253 -4 0 -5 8 -1 18 4 12 3 14 -5 7 -8 -7 -5 -34 9 -95
12 -51 19 -110 17 -150 -3 -63 -4 -65 -28 -63 -14 2 -44 10 -67 19 -42 15 -43
17 -43 60 0 24 -4 44 -8 44 -5 0 -6 14 -4 31 3 24 1 30 -8 24 -9 -5 -10 -2 -5
14 4 12 2 21 -4 21 -12 0 -15 -33 -3 -44 4 -4 8 -17 8 -29 4 -77 10 -117 17
-117 4 0 7 -38 7 -85 0 -47 -3 -85 -7 -85 -5 0 -7 33 -6 72 l1 73 -8 -65 c-4
-36 -17 -103 -29 -150 -13 -52 -19 -96 -15 -115 6 -28 5 -29 -12 -15 -31 24
-33 33 -19 60 17 30 47 270 45 355 -1 55 -6 110 -10 110 -3 0 -11 41 -11 58 0
9 -5 17 -10 17 -6 0 -8 4 -5 8 3 5 -5 29 -18 53 -13 24 -27 55 -31 69 -4 13
-14 30 -21 37 -7 8 -11 20 -7 29 3 8 1 14 -5 12 -5 -2 -30 24 -54 57 -25 33
-66 82 -91 109 -26 27 -43 54 -40 59 3 6 1 7 -6 3 -6 -4 -28 5 -49 22 -59 47
-167 110 -209 122 -38 12 -42 17 -109 153 -38 78 -71 145 -73 150 -6 16 101
-4 194 -35z m2025 -73 c0 -8 -6 -15 -14 -15 -20 0 -29 17 -14 23 22 9 28 7 28
-8z m280 -91 c0 -8 -4 -14 -9 -14 -11 0 -22 26 -14 34 9 9 23 -3 23 -20z
m-2676 -13 c3 -5 7 -24 8 -44 2 -21 7 -33 15 -30 7 3 10 -3 6 -16 -3 -12 -1
-21 5 -21 5 0 13 -16 16 -36 4 -19 14 -38 22 -41 8 -3 13 -13 12 -22 -2 -9 3
-15 10 -13 6 1 12 -7 12 -17 0 -11 5 -23 11 -26 6 -4 8 -13 5 -20 -2 -7 -2
-16 2 -19 3 -4 7 -17 9 -29 2 -12 9 -26 16 -32 7 -5 11 -18 9 -27 -2 -10 1
-18 7 -18 6 0 11 -9 11 -19 0 -11 7 -26 15 -35 8 -8 15 -21 15 -28 0 -8 5 -19
12 -26 15 -15 18 -53 6 -69 -7 -8 -3 -10 12 -6 16 4 19 2 14 -11 -4 -10 4 -32
19 -55 17 -25 22 -43 16 -52 -6 -11 -11 -11 -21 -1 -9 9 -9 12 0 12 7 0 12 5
12 10 0 6 -7 10 -15 10 -14 0 -19 11 -16 35 0 6 -8 16 -19 23 -26 16 -25 10 5
-50 27 -54 49 -80 59 -71 3 4 6 1 6 -5 0 -26 -46 -1 -85 46 -15 17 -33 32 -40
32 -7 0 -15 7 -19 15 -3 8 -11 15 -17 15 -8 0 -8 -4 1 -15 10 -12 10 -15 0
-15 -6 0 -14 9 -17 20 -3 11 -9 20 -14 20 -5 0 -3 -13 6 -29 10 -21 20 -28 34
-24 20 5 91 -55 91 -77 0 -6 4 -8 10 -5 5 3 20 -1 32 -9 12 -9 17 -16 10 -16
-6 0 -12 -4 -12 -10 0 -20 21 -9 30 15 14 37 19 31 18 -20 0 -24 -4 -42 -9
-39 -5 3 -9 0 -9 -5 0 -6 4 -11 10 -11 5 0 7 -7 4 -15 -4 -8 -12 -15 -19 -15
-7 0 -15 -6 -18 -12 -3 -7 -4 5 -4 27 1 22 -4 49 -11 60 -10 17 -11 12 -6 -25
7 -50 -11 -130 -27 -130 -8 0 -9 26 -4 80 4 51 3 85 -3 93 -6 6 -11 17 -12 22
-1 6 -6 9 -11 7 -6 -1 -9 5 -7 14 3 16 -44 50 -102 75 -20 8 -22 12 -10 20 11
8 10 9 -7 4 -29 -8 -51 4 -32 16 10 6 11 9 2 9 -7 0 -13 7 -13 15 0 8 -7 15
-15 15 -8 0 -15 -4 -15 -10 0 -5 -7 -7 -15 -4 -18 7 -20 -11 -3 -22 7 -5 8 -3
3 6 -6 9 -4 11 5 5 7 -4 16 -2 22 6 7 11 8 9 6 -6 -3 -16 -11 -20 -41 -21 -39
-1 -57 10 -32 20 8 3 15 11 15 17 0 9 -3 9 -14 0 -7 -6 -20 -9 -29 -5 -8 3
-18 1 -22 -5 -3 -6 0 -9 8 -5 9 3 16 -3 20 -15 5 -19 -16 -31 -53 -31 -12 1
-11 3 3 14 16 12 16 14 2 20 -9 3 -14 2 -11 -3 3 -5 -2 -12 -11 -15 -15 -6
-15 -8 -3 -16 12 -7 9 -14 -15 -34 -32 -28 -46 -27 -24 1 8 10 0 6 -18 -7 -17
-14 -36 -36 -43 -49 -10 -22 -9 -23 4 -11 10 8 16 8 16 2 0 -6 -8 -17 -19 -24
-10 -7 -19 -16 -20 -20 -1 -4 -4 -15 -7 -23 -4 -8 0 -30 9 -48 27 -59 29 -83
7 -84 -28 -2 -39 25 -37 90 2 39 -1 53 -8 46 -5 -5 -10 -34 -10 -64 0 -29 -2
-49 -5 -45 -3 4 -15 10 -27 11 l-22 4 24 50 c12 28 19 52 14 53 -5 2 -9 8 -9
13 0 6 4 8 9 5 5 -3 14 1 21 9 7 8 16 12 21 9 5 -3 6 2 3 10 -4 10 -1 16 8 16
8 0 20 12 27 28 l12 27 -19 -23 c-17 -21 -19 -22 -32 -7 -7 9 -19 14 -27 11
-18 -7 -17 9 2 28 8 8 15 22 15 30 0 31 22 55 41 45 14 -7 17 -5 16 11 -1 11
-6 19 -12 16 -7 -2 -12 2 -12 10 0 7 3 12 6 10 3 -2 11 2 18 9 10 11 10 14 0
18 -9 3 -9 9 0 25 7 11 24 49 38 83 14 35 30 66 37 70 6 4 12 18 14 31 1 14
10 42 18 63 13 30 19 36 28 27 7 -7 19 -12 28 -11 9 0 6 4 -7 9 -13 5 -23 17
-23 26 0 10 5 14 15 10 12 -4 13 -2 6 13 -7 12 -6 24 3 37 15 23 42 98 51 142
6 31 18 41 29 23z m1987 -94 c-13 -13 -26 -3 -16 12 3 6 11 8 17 5 6 -4 6 -10
-1 -17z m-4117 -253 c20 -20 12 -34 -20 -34 -19 0 -24 5 -24 25 0 29 21 33 44
9z m1834 -406 c-2 -6 -10 -13 -16 -14 -7 -1 -8 0 -2 3 5 2 8 9 4 14 -3 5 0 9
6 9 7 0 10 -5 8 -12z m-1713 -58 c-5 -8 -11 -8 -17 -2 -6 6 -7 16 -3 22 5 8
11 8 17 2 6 -6 7 -16 3 -22z m1415 2 c0 -13 -12 -22 -22 -16 -10 6 -1 24 13
24 5 0 9 -4 9 -8z m260 -36 c0 -3 -7 -6 -15 -6 -9 0 -12 -6 -9 -15 4 -9 0 -15
-10 -15 -19 0 -21 14 -3 32 8 7 11 20 9 28 -4 11 -2 11 11 -2 10 -9 17 -19 17
-22z m-170 -7 c0 -5 -7 -9 -15 -9 -15 0 -20 12 -9 23 8 8 24 -1 24 -14z m865
1 c3 -5 2 -10 -4 -10 -5 0 -13 5 -16 10 -3 6 -2 10 4 10 5 0 13 -4 16 -10z m0
-41 c-4 -5 -1 -9 5 -9 6 0 8 -5 5 -11 -9 -13 -15 -7 -20 20 -2 12 0 19 6 16 5
-4 7 -11 4 -16z m-2018 -66 c-3 -10 -5 -4 -5 12 0 17 2 24 5 18 2 -7 2 -21 0
-30z m1278 -5 c-4 -10 -14 -14 -26 -11 -26 7 -24 21 4 25 28 5 29 4 22 -14z
m2015 -116 c-9 -14 -10 -11 -6 17 3 18 7 54 8 80 2 38 2 35 5 -17 2 -35 -1
-70 -7 -80z m-2633 76 c-2 -13 -4 -5 -4 17 -1 22 1 32 4 23 2 -10 2 -28 0 -40z
m718 13 c3 -5 1 -12 -5 -16 -5 -3 -10 1 -10 9 0 18 6 21 15 7z m121 -89 c96
-65 195 -67 285 -6 28 20 53 33 56 30 23 -22 -68 -90 -143 -107 -43 -10 -66
-10 -109 0 -59 13 -138 65 -143 94 -5 23 6 21 54 -11z m1155 -74 c16 -3 29 -1
29 4 0 4 4 8 10 8 5 0 7 -7 4 -15 -5 -13 -2 -14 21 -5 37 14 38 13 32 -17 -15
-82 -37 -139 -64 -162 -24 -21 -28 -22 -31 -8 -2 10 -7 15 -11 12 -5 -2 -19
15 -32 39 -22 42 -22 45 -6 87 9 24 15 53 13 64 -2 11 -1 15 1 9 2 -7 17 -14
34 -16z m1429 11 c0 -5 -7 -9 -15 -9 -15 0 -20 12 -9 23 8 8 24 -1 24 -14z
m-680 -21 c0 -5 5 -8 11 -8 6 0 8 9 4 20 -9 27 9 25 21 -2 6 -13 9 -17 7 -10
-3 15 9 16 25 0 9 -9 12 -9 12 2 0 10 4 8 14 -5 13 -18 13 -42 1 -115 -12 -68
-13 -70 -58 -66 -23 2 -46 1 -52 -3 -5 -3 -35 -6 -66 -7 l-56 0 5 50 c2 28 4
62 5 76 1 14 8 31 15 39 12 12 11 16 -2 23 -9 5 -16 14 -16 21 0 8 3 9 8 1 8
-13 82 -6 82 7 0 5 9 4 20 -3 11 -7 20 -16 20 -20z m-2042 -2 c26 11 82 13 82
3 0 -5 9 -4 21 3 17 11 22 10 32 -3 14 -19 57 -29 148 -36 53 -4 75 0 107 15
27 13 55 18 84 16 30 -3 37 -1 23 5 -17 7 -15 9 15 13 24 4 41 1 53 -10 9 -8
17 -10 17 -4 0 6 -6 12 -12 15 -7 2 3 3 22 2 19 -1 36 -8 38 -15 3 -9 6 -9 13
1 6 10 9 11 9 2 0 -7 8 -13 18 -13 14 0 15 2 2 10 -13 8 -12 10 3 10 9 0 17
-5 17 -11 0 -8 4 -8 14 0 11 9 18 6 34 -16 17 -25 72 -152 72 -167 0 -4 -11
-4 -24 0 -13 3 -41 1 -62 -5 -28 -8 -40 -7 -45 1 -6 9 -17 9 -43 1 -24 -7 -36
-8 -36 -1 0 6 -11 3 -25 -6 -29 -19 -36 -20 -30 -3 4 9 -16 12 -80 12 -47 0
-85 -4 -85 -8 0 -5 -6 -5 -12 0 -20 12 -48 14 -48 3 0 -6 5 -10 12 -10 6 0 8
-3 4 -7 -4 -5 -13 -1 -19 8 -19 25 -58 31 -73 11 -13 -16 -13 -16 -14 1 0 21
-28 23 -36 2 -7 -17 -34 -21 -34 -4 0 5 -5 7 -10 4 -6 -4 -28 -8 -51 -10 -29
-3 -41 0 -45 10 -8 19 -24 19 -24 1 0 -22 -19 -30 -35 -16 -11 9 -15 9 -15 1
0 -6 -5 -11 -11 -11 -5 0 -7 5 -4 10 10 16 -5 33 -18 21 -7 -5 -23 -9 -37 -9
-14 1 -34 -3 -44 -7 -16 -7 -18 -5 -13 8 4 11 2 14 -9 10 -7 -3 -14 -10 -14
-17 0 -7 -3 -7 -8 -1 -9 13 -62 15 -62 2 0 -6 -2 -8 -5 -6 -12 13 65 178 88
185 9 3 17 10 17 15 0 6 4 8 9 5 5 -4 19 -2 32 2 15 6 32 4 51 -6 16 -8 36
-11 46 -6z m-1416 1 c32 -2 60 -6 63 -9 3 -3 7 -33 9 -66 3 -34 7 -65 10 -71
11 -17 -6 -42 -28 -40 -11 0 -23 0 -26 -1 -18 -7 -39 -7 -35 0 3 4 -22 8 -54
8 -33 0 -64 2 -69 6 -6 3 -13 37 -17 74 -3 37 -8 77 -11 90 -4 21 -2 22 48 17
29 -3 79 -7 110 -8z m2808 -127 c0 -5 -5 -10 -11 -10 -5 0 -7 5 -4 10 3 6 8
10 11 10 2 0 4 -4 4 -10z m-2170 -95 c0 -5 -5 -3 -10 5 -5 8 -10 20 -10 25 0
6 5 3 10 -5 5 -8 10 -19 10 -25z m2127 -5 c-6 -16 -15 -30 -19 -30 -5 0 -2 14
7 30 9 17 17 30 19 30 3 0 -1 -13 -7 -30z m171 -18 c2 -7 -3 -12 -12 -12 -9 0
-16 7 -16 16 0 17 22 14 28 -4z m-2284 -8 c3 -8 2 -12 -4 -9 -6 3 -10 10 -10
16 0 14 7 11 14 -7z m-781 -44 c3 -11 2 -20 -3 -20 -4 0 -10 9 -13 20 -3 11
-2 20 3 20 4 0 10 -9 13 -20z m577 4 c0 -9 -7 -14 -17 -12 -25 5 -28 28 -4 28
12 0 21 -6 21 -16z m235 -2 c-3 -3 -11 0 -18 7 -9 10 -8 11 6 5 10 -3 15 -9
12 -12z m2838 -58 c-8 -25 -17 -43 -20 -41 -6 6 21 87 29 87 4 0 0 -20 -9 -46z
m-3953 20 c0 -9 -5 -14 -12 -12 -18 6 -21 28 -4 28 9 0 16 -7 16 -16z m315 -4
c3 -5 1 -10 -4 -10 -6 0 -11 5 -11 10 0 6 2 10 4 10 3 0 8 -4 11 -10z m10 -30
c3 -5 1 -10 -4 -10 -6 0 -11 5 -11 10 0 6 2 10 4 10 3 0 8 -4 11 -10z m3125
-205 c0 -8 -6 -15 -14 -15 -17 0 -28 14 -19 24 12 12 33 6 33 -9z m-1458 -36
c1 -44 -11 -99 -23 -99 -12 0 -12 77 1 85 6 3 10 18 10 32 0 38 10 22 12 -18z
m-527 -2 c8 -18 19 -47 24 -65 8 -28 7 -32 -9 -32 -20 0 -40 50 -40 103 0 35
6 34 25 -6z m3165 -1 c0 -3 -4 -8 -10 -11 -5 -3 -10 -1 -10 4 0 6 5 11 10 11
6 0 10 -2 10 -4z m-3722 -178 c-4 -10 -48 -32 -48 -23 0 2 7 11 16 19 18 19
37 21 32 4z m2480 -16 c4 -14 0 -15 -22 -6 -9 3 -16 10 -16 14 0 12 33 5 38
-8z m-1798 -22 c66 -42 158 -51 221 -22 24 12 56 29 71 38 39 26 47 9 13 -26
-34 -36 -120 -70 -175 -70 -72 0 -200 64 -200 100 0 17 22 11 70 -20z m3410
-34 c0 -3 -4 -8 -10 -11 -5 -3 -10 -1 -10 4 0 6 5 11 10 11 6 0 10 -2 10 -4z
m-2645 -81 c7 -11 15 -31 18 -45 5 -21 2 -26 -13 -27 -14 -1 -22 6 -25 23 -3
13 -7 35 -10 48 -3 14 -2 33 2 43 7 17 8 17 11 -2 3 -10 10 -28 17 -40z m520
-4 c-9 -54 -15 -71 -26 -71 -12 0 -12 67 1 75 6 3 10 15 10 26 0 12 4 17 11
13 7 -4 8 -20 4 -43z m-424 -180 c88 -68 194 -72 291 -10 27 17 51 29 54 26
14 -14 -21 -48 -78 -76 -75 -38 -149 -41 -218 -10 -44 20 -100 65 -100 81 0
14 26 9 51 -11z m722 -32 c-6 -6 -18 -6 -28 -3 -18 7 -18 8 1 14 23 9 39 1 27
-11z m-2043 7 c0 -9 -30 -14 -35 -6 -4 6 3 10 14 10 12 0 21 -2 21 -4z m3010
-185 c0 -14 -18 -23 -30 -16 -6 4 -8 11 -5 16 8 12 35 12 35 0z m-2993 -12
c39 -14 304 -87 383 -105 432 -96 649 -107 970 -49 178 33 391 84 579 141 92
28 137 26 166 -6 27 -29 10 -40 -35 -23 -44 18 -16 23 -325 -60 -93 -25 -206
-53 -250 -62 -499 -103 -711 -87 -1445 111 -101 27 -106 27 -139 11 -56 -28
-72 0 -18 33 36 22 72 25 114 9z m2423 -90 c0 -5 -7 -9 -15 -9 -15 0 -20 12
-9 23 8 8 24 -1 24 -14z m-2500 -41 c10 -13 16 -26 13 -31 -4 -7 -43 35 -43
47 0 12 12 5 30 -16z m100 -3 c0 -8 -2 -15 -4 -15 -2 0 -6 7 -10 15 -3 8 -1
15 4 15 6 0 10 -7 10 -15z m164 -28 c-3 -15 -15 -29 -25 -32 -24 -8 -25 -22
-1 -20 27 2 43 15 40 33 -2 10 3 16 11 14 7 -1 18 2 25 7 13 11 93 -8 104 -25
4 -6 27 -11 52 -12 25 0 46 -6 49 -13 2 -8 6 -8 10 -1 5 8 20 8 51 1 25 -6 56
-12 70 -14 14 -2 24 -7 23 -11 -1 -5 22 -10 50 -10 29 -1 149 -5 267 -9 214
-7 337 2 524 35 45 8 62 8 74 -2 13 -11 15 -10 10 4 -8 20 27 32 45 15 20 -19
38 -19 35 0 -3 19 20 25 40 10 9 -7 11 -6 6 7 -3 9 -1 16 4 16 6 0 14 -9 17
-21 8 -24 28 -20 34 7 3 16 1 17 -13 5 -9 -7 -16 -10 -16 -6 0 4 8 13 17 20
14 10 21 10 40 -2 21 -14 23 -14 23 6 0 11 5 21 11 21 7 0 9 -10 7 -25 -4 -17
-1 -25 8 -25 8 0 14 6 14 13 0 9 3 8 9 -2 10 -16 31 -6 31 15 0 16 16 19 25 4
10 -16 25 -12 19 5 -4 8 -10 13 -14 10 -5 -3 -11 -1 -15 5 -3 5 1 10 9 10 8 0
18 -5 21 -10 4 -6 11 -8 16 -5 5 4 9 -2 9 -11 0 -16 2 -16 20 1 20 18 21 18
12 -6 -5 -13 -16 -24 -25 -24 -9 0 -19 -4 -23 -8 -4 -4 7 -7 24 -7 21 0 32 6
37 19 3 10 17 21 30 24 31 5 33 -11 3 -23 -13 -5 -17 -9 -9 -9 8 -1 23 6 33
16 10 9 18 11 18 6 0 -6 7 -13 14 -16 9 -4 13 -1 10 6 -3 8 4 13 17 14 15 1
19 -2 15 -14 -5 -12 -1 -14 14 -10 13 3 20 0 20 -8 0 -7 4 -15 9 -17 14 -5 71
-135 71 -162 0 -21 -8 -27 -65 -45 -35 -12 -71 -21 -80 -21 -8 0 -23 -4 -33
-9 -9 -5 -37 -14 -62 -20 -244 -60 -421 -104 -450 -112 -19 -5 -55 -11 -80
-14 -25 -3 -94 -12 -155 -22 -148 -22 -414 -22 -560 0 -60 10 -137 22 -170 26
-108 16 -292 60 -565 136 -151 41 -188 55 -194 70 -6 16 70 185 84 185 5 0 10
-4 12 -9 2 -5 9 -3 16 5 11 12 10 16 -7 22 -15 5 -18 11 -11 22 8 12 10 12 10
1 0 -7 6 -11 15 -7 17 6 20 -16 5 -43 -8 -15 -6 -17 14 -14 17 4 22 10 19 24
-4 13 0 19 10 19 8 0 18 6 20 13 4 9 8 8 17 -3 8 -10 13 -11 16 -4 3 6 16 9
29 6 15 -2 25 0 25 7 0 6 4 11 10 11 5 0 7 -8 4 -17 -5 -17 -5 -17 9 -1 15 19
49 17 74 -4 14 -11 15 -10 8 11 -5 15 -4 21 3 17 6 -3 14 -1 17 5 11 17 16 3
9 -24z m1630 18 c-4 -8 -8 -15 -10 -15 -2 0 -4 7 -4 15 0 8 4 15 10 15 5 0 7
-7 4 -15z m272 0 c18 -13 18 -14 -4 -8 -12 3 -25 9 -28 14 -8 14 10 11 32 -6z
m174 -190 c0 -14 -9 -29 -20 -35 -18 -9 -20 -8 -20 15 0 15 6 25 15 25 9 0 12
6 8 17 -4 11 -3 14 5 9 7 -4 12 -18 12 -31z m-2520 -20 c0 -22 -3 -24 -20 -15
-21 11 -17 40 6 40 8 0 14 -10 14 -25z m-290 -45 c0 -5 -5 -10 -11 -10 -5 0
-7 5 -4 10 3 6 8 10 11 10 2 0 4 -4 4 -10z m665 -420 c3 -5 4 -14 0 -20 -8
-13 -35 -1 -35 16 0 16 26 19 35 4z m125 -26 c0 -8 -5 -12 -10 -9 -6 4 -8 11
-5 16 9 14 15 11 15 -7z m-1040 -50 c0 -8 -4 -12 -10 -9 -5 3 -10 10 -10 16 0
5 5 9 10 9 6 0 10 -7 10 -16z m1600 -134 c0 -5 -5 -10 -11 -10 -5 0 -7 5 -4
10 3 6 8 10 11 10 2 0 4 -4 4 -10z"/>
<path d="M2730 5060 c-36 -5 -87 -12 -115 -15 -27 -3 -70 -12 -95 -19 -25 -8
-72 -22 -105 -31 -241 -70 -492 -207 -695 -380 -96 -82 -290 -299 -290 -324 0
-6 -4 -11 -8 -11 -5 0 -14 -11 -20 -25 -14 -31 -3 -39 60 -41 39 0 44 1 31 11
-15 11 -14 14 6 25 15 8 21 8 17 1 -13 -20 4 -32 27 -19 20 10 21 10 8 -6 -18
-22 -6 -33 14 -12 17 17 45 22 45 8 0 -20 31 -7 36 15 4 13 12 27 20 31 8 4
60 53 116 108 119 115 173 160 269 219 104 64 150 88 244 127 138 57 254 95
342 110 86 14 558 15 633 0 198 -39 438 -139 614 -255 106 -71 126 -88 261
-218 133 -129 155 -149 162 -149 3 0 -2 11 -11 25 -14 22 -15 25 -1 25 8 0 15
-7 15 -15 0 -9 13 -24 30 -33 16 -9 30 -24 30 -32 0 -8 5 -22 11 -30 8 -12 9
-11 7 5 -2 12 2 19 10 17 7 -1 12 5 10 15 -2 12 4 18 18 19 12 1 26 4 33 8 15
9 14 -7 -1 -22 -9 -9 -5 -9 15 0 27 13 36 28 16 28 -5 0 -7 5 -3 11 7 13 21 1
26 -23 2 -12 7 -15 16 -9 36 22 -236 340 -388 455 -30 22 -60 46 -66 51 -9 9
-67 48 -154 105 -39 25 -182 97 -210 105 -14 4 -43 16 -65 26 -53 24 -223 79
-247 79 -10 0 -26 4 -36 9 -57 30 -487 50 -632 31z m-1260 -780 c0 -5 -4 -10
-10 -10 -5 0 -10 5 -10 10 0 6 5 10 10 10 6 0 10 -4 10 -10z m100 -20 c0 -5
-7 -7 -15 -4 -8 4 -15 8 -15 10 0 2 7 4 15 4 8 0 15 -4 15 -10z m2810 0 c0 -5
-5 -10 -11 -10 -5 0 -7 5 -4 10 3 6 8 10 11 10 2 0 4 -4 4 -10z m-2926 -16 c3
-8 2 -12 -4 -9 -6 3 -10 10 -10 16 0 14 7 11 14 -7z m2919 -8 c11 4 17 1 17
-7 0 -11 2 -11 10 1 5 8 12 11 16 7 4 -4 0 -15 -9 -25 -12 -12 -20 -14 -25 -6
-4 6 -17 14 -30 18 -12 4 -19 12 -16 18 4 7 9 6 14 -1 3 -7 14 -9 23 -5z"/>
<path d="M1485 4190 c3 -5 11 -10 16 -10 6 0 7 5 4 10 -3 6 -11 10 -16 10 -6
0 -7 -4 -4 -10z"/>
<path d="M4330 4184 c0 -8 5 -12 10 -9 6 4 8 11 5 16 -9 14 -15 11 -15 -7z"/>
<path d="M1400 4180 c0 -5 5 -10 11 -10 5 0 7 5 4 10 -3 6 -8 10 -11 10 -2 0
-4 -4 -4 -10z"/>
<path d="M1455 4170 c-3 -5 -1 -10 4 -10 6 0 11 5 11 10 0 6 -2 10 -4 10 -3 0
-8 -4 -11 -10z"/>
<path d="M1570 4170 c0 -5 5 -10 10 -10 6 0 10 5 10 10 0 6 -4 10 -10 10 -5 0
-10 -4 -10 -10z"/>
<path d="M4425 4170 c3 -5 11 -10 16 -10 6 0 7 5 4 10 -3 6 -11 10 -16 10 -6
0 -7 -4 -4 -10z"/>
<path d="M4750 3864 c0 -10 3 -14 7 -11 3 4 12 -1 20 -11 13 -15 13 -15 3 5
-14 29 -30 38 -30 17z"/>
<path d="M4760 3752 c0 -5 7 -9 15 -9 8 0 12 4 9 9 -3 4 -9 8 -15 8 -5 0 -9
-4 -9 -8z"/>
<path d="M1131 3734 c0 -11 3 -14 6 -6 3 7 2 16 -1 19 -3 4 -6 -2 -5 -13z"/>
<path d="M1108 3712 c-4 -12 -2 -22 3 -22 5 0 9 -8 9 -17 0 -15 -2 -16 -10 -3
-7 11 -8 5 -3 -19 4 -23 3 -32 -5 -27 -6 3 -13 2 -16 -3 -4 -5 -2 -12 4 -16 5
-3 10 -16 11 -28 1 -12 7 7 15 43 9 40 11 74 6 89 -8 25 -9 25 -14 3z"/>
<path d="M4530 3676 c0 -8 4 -17 9 -20 5 -4 7 3 4 14 -6 23 -13 26 -13 6z"/>
<path d="M4540 3630 c0 -5 5 -10 11 -10 5 0 7 5 4 10 -3 6 -8 10 -11 10 -2 0
-4 -4 -4 -10z"/>
<path d="M1351 3614 c0 -11 3 -14 6 -6 3 7 2 16 -1 19 -3 4 -6 -2 -5 -13z"/>
<path d="M4555 3579 c3 -19 9 -60 14 -92 8 -59 31 -103 31 -59 0 12 -4 30 -10
40 -5 9 -12 43 -15 74 -4 32 -11 60 -16 64 -7 4 -8 -6 -4 -27z"/>
<path d="M1337 3563 c-4 -3 -7 -11 -7 -17 0 -6 5 -5 12 2 6 6 9 14 7 17 -3 3
-9 2 -12 -2z"/>
<path d="M1073 3535 c-3 -9 -3 -18 0 -21 9 -9 27 6 27 22 0 19 -19 18 -27 -1z"/>
<path d="M1326 3505 c-3 -9 -6 -31 -5 -48 1 -28 2 -26 10 12 9 46 6 65 -5 36z"/>
<path d="M2590 4269 c-24 -11 -47 -24 -50 -29 -3 -5 -18 -11 -34 -14 -47 -8
-50 -22 -5 -21 28 1 46 7 55 20 8 10 15 15 15 9 1 -5 2 -16 3 -24 0 -8 8 -15
16 -15 11 0 14 8 12 28 -2 19 1 27 8 22 11 -7 39 21 40 38 0 11 -11 8 -60 -14z"/>
<path d="M2475 4139 c-11 -16 -1 -19 13 -3 7 8 8 14 3 14 -5 0 -13 -5 -16 -11z"/>
<path d="M2115 3740 c-3 -5 -1 -10 4 -10 6 0 11 5 11 10 0 6 -2 10 -4 10 -3 0
-8 -4 -11 -10z"/>
<path d="M1930 3719 c0 -5 5 -7 10 -4 6 3 10 8 10 11 0 2 -4 4 -10 4 -5 0 -10
-5 -10 -11z"/>
<path d="M2095 3710 c-3 -5 -1 -10 4 -10 6 0 11 5 11 10 0 6 -2 10 -4 10 -3 0
-8 -4 -11 -10z"/>
<path d="M1905 3690 c3 -5 10 -10 16 -10 5 0 9 5 9 10 0 6 -7 10 -16 10 -8 0
-12 -4 -9 -10z"/>
<path d="M2065 3650 c-3 -5 -1 -10 4 -10 6 0 11 5 11 10 0 6 -2 10 -4 10 -3 0
-8 -4 -11 -10z"/>
<path d="M2043 3603 c-3 -10 -8 -22 -11 -27 -3 -5 0 -6 5 -3 11 7 25 47 17 47
-3 0 -7 -8 -11 -17z"/>
<path d="M2011 3519 c-16 -53 -8 -61 9 -9 7 22 11 42 8 45 -3 3 -10 -13 -17
-36z"/>
<path d="M1820 3465 c0 -16 16 -20 24 -6 3 5 -1 11 -9 15 -9 3 -15 0 -15 -9z"/>
<path d="M1984 3406 c-3 -8 -4 -23 -2 -33 3 -11 6 -6 9 15 6 34 2 42 -7 18z"/>
<path d="M3274 4265 c9 -38 18 -47 50 -48 18 -2 25 -6 21 -16 -4 -11 -1 -10
13 2 10 9 27 17 38 17 19 1 19 1 0 15 -17 13 -21 13 -31 -2 -8 -11 -14 -13
-19 -5 -4 7 -4 16 -1 22 3 5 -7 12 -22 16 -15 4 -34 12 -42 18 -12 9 -13 6 -7
-19z"/>
<path d="M3382 4199 c2 -6 8 -10 13 -10 5 0 11 4 13 10 2 6 -4 11 -13 11 -9 0
-15 -5 -13 -11z"/>
<path d="M3455 4190 c3 -5 8 -10 11 -10 2 0 4 5 4 10 0 6 -5 10 -11 10 -5 0
-7 -4 -4 -10z"/>
<path d="M3486 4165 c4 -8 8 -15 10 -15 2 0 4 7 4 15 0 8 -4 15 -10 15 -5 0
-7 -7 -4 -15z"/>
<path d="M3330 4146 c0 -2 7 -7 16 -10 8 -3 12 -2 9 4 -6 10 -25 14 -25 6z"/>
<path d="M3660 3890 c0 -5 5 -10 11 -10 5 0 7 5 4 10 -3 6 -8 10 -11 10 -2 0
-4 -4 -4 -10z"/>
<path d="M4028 3674 c-4 -3 0 -13 8 -21 19 -20 28 -12 11 11 -7 9 -16 14 -19
10z"/>
<path d="M3820 3660 c0 -5 5 -10 10 -10 6 0 10 5 10 10 0 6 -4 10 -10 10 -5 0
-10 -4 -10 -10z"/>
<path d="M4010 3625 c0 -8 2 -15 4 -15 2 0 6 7 10 15 3 8 1 15 -4 15 -6 0 -10
-7 -10 -15z"/>
<path d="M3836 3615 c25 -19 40 -19 24 0 -7 8 -20 15 -28 15 -13 0 -12 -3 4
-15z"/>
<path d="M3860 3580 c0 -5 5 -10 11 -10 5 0 7 5 4 10 -3 6 -8 10 -11 10 -2 0
-4 -4 -4 -10z"/>
<path d="M4030 3570 c0 -5 5 -10 10 -10 6 0 10 5 10 10 0 6 -4 10 -10 10 -5 0
-10 -4 -10 -10z"/>
<path d="M3877 3538 c-5 -17 3 -48 14 -48 5 0 6 -8 2 -17 -5 -14 -3 -15 7 -7
13 13 5 54 -10 54 -5 0 -7 7 -4 15 4 8 4 15 1 15 -3 0 -7 -6 -10 -12z"/>
<path d="M2800 3699 c0 -5 5 -7 10 -4 6 3 10 8 10 11 0 2 -4 4 -10 4 -5 0 -10
-5 -10 -11z"/>
<path d="M3118 3684 c-9 -13 18 -54 35 -54 7 1 5 6 -4 13 -9 7 -18 21 -21 32
-2 12 -6 16 -10 9z"/>
<path d="M2759 3663 c-12 -16 -12 -17 1 -7 8 6 22 14 30 17 13 5 12 6 -1 6 -9
1 -23 -7 -30 -16z"/>
<path d="M2761 3611 c-7 -5 -11 -15 -9 -22 3 -10 8 -7 17 9 13 24 12 26 -8 13z"/>
<path d="M3145 3598 c4 -12 12 -27 18 -33 7 -7 8 -6 3 2 -3 6 -3 13 2 15 4 1
-1 11 -11 21 -19 19 -19 18 -12 -5z"/>
<path d="M2697 3516 c-3 -8 0 -17 7 -19 10 -4 12 1 9 14 -6 23 -9 24 -16 5z"/>
<path d="M2773 3498 c-12 -6 -24 -17 -27 -24 -7 -19 -3 -18 30 11 31 27 31 29
-3 13z"/>
<path d="M2687 3472 c-10 -2 -16 -9 -14 -15 6 -18 24 -19 31 -1 8 20 6 21 -17
16z"/>
<path d="M2660 2831 c0 -6 4 -13 10 -16 6 -3 7 1 4 9 -7 18 -14 21 -14 7z"/>
<path d="M2228 1473 c-28 -7 -21 -18 11 -18 19 0 27 4 24 13 -5 12 -7 13 -35
5z"/>
<path d="M3680 1470 c0 -5 5 -10 11 -10 5 0 7 5 4 10 -3 6 -8 10 -11 10 -2 0
-4 -4 -4 -10z"/>
<path d="M3996 1434 c-5 -14 -4 -15 9 -4 17 14 19 20 6 20 -5 0 -12 -7 -15
-16z"/>
<path d="M3840 1430 c0 -5 5 -10 10 -10 6 0 10 5 10 10 0 6 -4 10 -10 10 -5 0
-10 -4 -10 -10z"/>
<path d="M2345 1420 c3 -5 8 -10 11 -10 2 0 4 5 4 10 0 6 -5 10 -11 10 -5 0
-7 -4 -4 -10z"/>
<path d="M3595 1420 c-3 -5 -2 -10 4 -10 5 0 13 5 16 10 3 6 2 10 -4 10 -5 0
-13 -4 -16 -10z"/>
<path d="M3920 1416 c0 -2 9 -6 20 -9 11 -3 20 -1 20 4 0 5 -9 9 -20 9 -11 0
-20 -2 -20 -4z"/>
</g>
</svg>
